<?xml version="1.0" encoding="utf-8"?><svg xmlns="http://www.w3.org/2000/svg" xmlns:xlink="http://www.w3.org/1999/xlink"><symbol viewBox="0 0 29 24" id="basket" xmlns="http://www.w3.org/2000/svg"><path d="M10.63 23.763c-1.799-.118-3.157-1.482-3.3-3.316-.119-1.49.852-3.231 2.937-3.674l.54-.115.59.13c1.014.223 1.8.746 2.335 1.554.552.835.718 1.755.492 2.735-.354 1.546-1.816 2.693-3.384 2.693-.07 0-.14-.003-.21-.007zm-.724-4.42c-.244.242-.38.566-.38.915-.002.359.131.69.373.934.24.241.568.374.921.374.724 0 1.296-.564 1.302-1.285a1.273 1.273 0 00-.368-.919 1.305 1.305 0 00-.93-.39h-.01c-.344 0-.667.132-.908.371zm14.63-.996c.556.841.719 1.768.484 2.757-.396 1.663-2.013 2.8-3.743 2.645-1.706-.152-3.061-1.582-3.154-3.327-.08-1.48.903-3.204 2.93-3.634l.552-.117.579.121c1.017.211 1.808.733 2.352 1.555zm-2.905 3.22a1.28 1.28 0 001.288-1.28 1.293 1.293 0 00-1.293-1.315h-.022a1.283 1.283 0 00-1.28 1.282 1.279 1.279 0 001.29 1.312zm6.752-17.983H8.55l.16.638c.125.489.249.979.365 1.47.018.078.028.08.148.08h2.55l2.124.002 11.626-.003-.05.22c-.01.046-.017.08-.026.115l-.395 1.452c-.59 2.162-1.18 4.324-1.762 6.487-.064.239-.178.329-.42.329h-.003c-1.661-.007-3.322-.005-4.982-.006h-2.782c-1.848 0-3.697 0-5.545.004-.2 0-.302-.081-.351-.28-.198-.815-.402-1.628-.605-2.44l-.7-2.801a7458.96 7458.96 0 00-1.786-7.147C5.858.67 4.962-.026 3.886-.03a411.38 411.38 0 00-1.923 0l-.7.002c-.645 0-1.135.47-1.14 1.09-.005.616.47 1.092 1.108 1.107.186.005.372.003.558.002l2.164-.002.045.164c.016.053.03.102.04.15l1.112 4.44c.66 2.643 1.323 5.285 1.983 7.927.109.439.336.816.672 1.122.429.39.956.592 1.569.6.2.005.404.004.607.003l1.217-.001-.071.015h10.86l-.112.024.323-.02c.278-.017.553-.018.82-.018h.043c1.104-.003 1.969-.663 2.259-1.725 1.019-3.743 2.037-7.486 3.054-11.23.004-.011.006-.024.009-.037z"/></symbol><symbol viewBox="0 0 18 17" id="clock" xmlns="http://www.w3.org/2000/svg"><path d="M9.08 16.984C4.402 16.981.578 13.151.584 8.477.59 3.794 4.414-.022 9.093-.016c4.677.005 8.492 3.826 8.49 8.502-.001 4.677-3.827 8.501-8.503 8.498zm6.613-8.498c.004-3.65-2.933-6.568-6.526-6.612a6.605 6.605 0 00-6.692 6.612 6.594 6.594 0 006.604 6.605 6.594 6.594 0 006.614-6.605z"/><path d="M10.16 7.985l.663-.404c.462-.281.922-.564 1.384-.844a.941.941 0 011.283.314.935.935 0 01-.29 1.288c-.4.254-.805.497-1.208.744-.75.46-1.501.923-2.252 1.382-.55.337-1.23.1-1.42-.496a.918.918 0 01-.045-.28c-.003-2.17-.003-4.34-.001-6.508a.94.94 0 01.854-.946.94.94 0 011.016.77c.016.087.015.178.015.267v4.58z"/></symbol><symbol viewBox="0 0 17 13" id="email" xmlns="http://www.w3.org/2000/svg"><path d="M2.554 13.064a1.687 1.687 0 01-1.702-1.687v-9.26c0-.934.745-1.683 1.68-1.683 4.212-.002 8.425-.002 12.637 0 .939 0 1.681.75 1.682 1.69v9.218c0 .984-.739 1.721-1.727 1.721H2.554zM15.163 3.64c-.023.018-.042.031-.059.047a7444.635 7444.635 0 01-4.025 3.807c-.466.44-.931.885-1.406 1.317a1.52 1.52 0 01-.902.414c-.459.041-.841-.137-1.169-.439-.277-.257-.542-.528-.812-.794L2.627 3.88a3.991 3.991 0 00-.087-.084v7.58h12.623zM3.243 2.12l5.414 5.346L14.31 2.12z"/></symbol><symbol viewBox="0 0 29 25" id="heart" xmlns="http://www.w3.org/2000/svg"><path d="M14.268 9.816C14.268-2.587.947.513.947 8.086c0 7.575 13.32 15.784 13.32 15.784S27.98 15.66 27.98 8.087c0-7.574-13.714-10.674-13.714 1.729z"/></symbol><symbol viewBox="0 0 14 21" id="marker" xmlns="http://www.w3.org/2000/svg"><path d="M6.35 19.135c-.538-.995-1.074-1.99-1.611-2.986l-1.957-3.626c-.532-.985-1.075-1.965-1.597-2.956-.48-.909-.73-1.872-.712-2.896a5.959 5.959 0 01.51-2.36 6.2 6.2 0 011.577-2.13A6.668 6.668 0 015.69.63a6.852 6.852 0 013.802.29c1.307.478 2.347 1.277 3.115 2.376.912 1.304 1.234 2.746 1.03 4.296-.11.837-.435 1.602-.844 2.343-.476.864-.94 1.734-1.41 2.601l-1.2 2.216c-.54 1-1.075 2.001-1.616 3.001-.486.9-.975 1.798-1.482 2.732-.257-.472-.497-.91-.735-1.349zM3.116 6.745c.009 2.072 1.787 3.746 3.975 3.741 2.19-.005 3.965-1.685 3.963-3.754-.003-2.073-1.79-3.756-3.984-3.75-2.182.004-3.964 1.7-3.954 3.762z"/></symbol><symbol viewBox="0 0 11 3" id="minus" xmlns="http://www.w3.org/2000/svg"><path d="M.549 1.719h10"/></symbol><symbol viewBox="0 0 14 17" id="phone" xmlns="http://www.w3.org/2000/svg"><path d="M10.009 16.44c-.181-.024-.363-.042-.542-.076-.664-.122-1.27-.392-1.85-.729-1.795-1.042-3.215-2.473-4.376-4.18-.828-1.217-1.502-2.509-1.96-3.91a12.17 12.17 0 01-.556-2.557C.665 4.39.645 3.79.78 3.194c.223-.992.77-1.77 1.58-2.37A3.585 3.585 0 013.55.218c.276-.075.553-.094.828-.006.35.112.59.353.749.676.236.478.404.982.54 1.495.11.411.209.826.29 1.243.032.17.025.355.002.527-.04.291-.216.504-.452.668-.27.187-.572.312-.874.436-.251.102-.501.207-.75.312-.206.087-.285.261-.213.474.55 1.628 1.363 3.118 2.39 4.493.542.725 1.14 1.4 1.802 2.018.209.196.415.181.595-.046.286-.36.59-.705.97-.972.246-.173.508-.303.816-.317a.987.987 0 01.572.14c.845.521 1.625 1.124 2.278 1.878.124.142.229.306.317.474.188.36.174.726-.02 1.081-.208.38-.513.672-.862.92a3.893 3.893 0 01-1.964.713c-.025.002-.05.01-.073.014z"/></symbol><symbol viewBox="0 0 11 11" id="plus" xmlns="http://www.w3.org/2000/svg"><path d="M5.549.719v10m-5-5h10"/></symbol><symbol viewBox="0 0 18 17" id="search" xmlns="http://www.w3.org/2000/svg"><path d="M12.33 6.49a5.38 5.38 0 11-10.759 0 5.38 5.38 0 0110.759 0zm-1.317 3.519l6.103 6.102"/></symbol><symbol viewBox="0 0 25 25" id="user" xmlns="http://www.w3.org/2000/svg"><path d="M.684 22.194c.018-.186.034-.372.055-.557a8.472 8.472 0 011.652-4.125c.98-1.32 2.236-2.316 3.675-3.092.268-.145.543-.276.82-.416-.014-.028-.024-.055-.037-.079a9.156 9.156 0 01-1.253-3.67c-.157-1.278-.086-2.54.278-3.778.517-1.754 1.442-3.249 2.913-4.353 2.046-1.536 4.279-1.84 6.637-.816 1.66.72 2.829 1.98 3.633 3.584.77 1.54 1.043 3.177.914 4.888a9.337 9.337 0 01-1.17 3.925c-.055.098-.113.196-.173.3.048.024.088.044.126.065.427.238.865.457 1.278.716 1.438.901 2.65 2.032 3.522 3.502.585.988.97 2.048 1.06 3.196.049.632.037 1.27.035 1.906 0 .363-.14.683-.383.954-.337.378-.765.526-1.266.526-6.888-.004-13.774-.003-20.662-.003-.057 0-.114.001-.171-.003-.54-.029-.965-.269-1.242-.729-.113-.187-.162-.412-.241-.619zm21.729.43a5.5 5.5 0 00-.162-1.356c-.297-1.208-.921-2.229-1.784-3.11-.977-1-2.142-1.708-3.44-2.21-.088-.035-.15-.033-.226.031-.957.797-2.047 1.291-3.291 1.428a6.37 6.37 0 01-2.74-.27 6.292 6.292 0 01-2.053-1.157c-.053-.044-.095-.083-.181-.05-1.137.436-2.181 1.028-3.087 1.846-1.246 1.126-2.091 2.48-2.304 4.176-.028.22-.034.443-.05.671zM16.88 5.93c-.511-1.036-1.226-1.893-2.248-2.462-.73-.405-1.51-.58-2.342-.469-.953.126-1.755.567-2.432 1.231C8.69 5.377 8.105 6.797 7.956 8.41a6.807 6.807 0 00.44 3.12c.458 1.18 1.163 2.174 2.245 2.864.993.633 2.063.826 3.203.48.957-.29 1.712-.879 2.32-1.657.97-1.236 1.402-2.658 1.423-4.086-.008-1.206-.23-2.233-.706-3.199z"/></symbol></svg>