<?xml version="1.0" encoding="utf-8"?><svg xmlns="http://www.w3.org/2000/svg" xmlns:xlink="http://www.w3.org/1999/xlink"><symbol viewBox="0 0 12 7" id="arrow-down" xmlns="http://www.w3.org/2000/svg"><path d="M1 .5l5 5 5-5"/></symbol><symbol viewBox="0 0 29 24" id="basket" xmlns="http://www.w3.org/2000/svg"><path d="M10.63 23.763c-1.799-.118-3.157-1.482-3.3-3.316-.119-1.49.852-3.231 2.937-3.674l.54-.115.59.13c1.014.223 1.8.746 2.335 1.554.552.835.718 1.755.492 2.735-.354 1.546-1.816 2.693-3.384 2.693-.07 0-.14-.003-.21-.007zm-.724-4.42c-.244.242-.38.566-.38.915-.002.359.131.69.373.934.24.241.568.374.921.374.724 0 1.296-.564 1.302-1.285a1.273 1.273 0 00-.368-.919 1.305 1.305 0 00-.93-.39h-.01c-.344 0-.667.132-.908.371zm14.63-.996c.556.841.719 1.768.484 2.757-.396 1.663-2.013 2.8-3.743 2.645-1.706-.152-3.061-1.582-3.154-3.327-.08-1.48.903-3.204 2.93-3.634l.552-.117.579.121c1.017.211 1.808.733 2.352 1.555zm-2.905 3.22a1.28 1.28 0 001.288-1.28 1.293 1.293 0 00-1.293-1.315h-.022a1.283 1.283 0 00-1.28 1.282 1.279 1.279 0 001.29 1.312zm6.752-17.983H8.55l.16.638c.125.489.249.979.365 1.47.018.078.028.08.148.08h2.55l2.124.002 11.626-.003-.05.22c-.01.046-.017.08-.026.115l-.395 1.452c-.59 2.162-1.18 4.324-1.762 6.487-.064.239-.178.329-.42.329h-.003c-1.661-.007-3.322-.005-4.982-.006h-2.782c-1.848 0-3.697 0-5.545.004-.2 0-.302-.081-.351-.28-.198-.815-.402-1.628-.605-2.44l-.7-2.801a7458.96 7458.96 0 00-1.786-7.147C5.858.67 4.962-.026 3.886-.03a411.38 411.38 0 00-1.923 0l-.7.002c-.645 0-1.135.47-1.14 1.09-.005.616.47 1.092 1.108 1.107.186.005.372.003.558.002l2.164-.002.045.164c.016.053.03.102.04.15l1.112 4.44c.66 2.643 1.323 5.285 1.983 7.927.109.439.336.816.672 1.122.429.39.956.592 1.569.6.2.005.404.004.607.003l1.217-.001-.071.015h10.86l-.112.024.323-.02c.278-.017.553-.018.82-.018h.043c1.104-.003 1.969-.663 2.259-1.725 1.019-3.743 2.037-7.486 3.054-11.23.004-.011.006-.024.009-.037z"/></symbol><symbol viewBox="0 0 120 113" id="chemistry" xmlns="http://www.w3.org/2000/svg"><path d="M2.671.777h114.991c.995 0 1.802.808 1.802 1.804v79.055c0 8.404-3.435 16.044-8.972 21.579-5.536 5.537-13.175 8.974-21.578 8.974H2.671a1.804 1.804 0 01-1.804-1.805V64.889h3.608v43.691h84.44c7.405 0 14.142-3.032 19.026-7.916 4.884-4.885 7.917-11.621 7.917-19.028V4.385H.867V2.581c0-.996.807-1.804 1.804-1.804z"/><path d="M69.836 27.136c.335.13.698.213 1.002.396 1.088.658 1.064 1.923-.029 2.574a2.55 2.55 0 01-1.298.364c-.397.004-.793.001-1.198.001-.006.11-.012.182-.012.254 0 4.303-.002 8.607.004 12.911 0 .136.051.286.12.405 4.964 8.637 9.935 17.27 14.902 25.905.428.743.92 1.456 1.171 2.288.186.614.345 1.237.516 1.856v1.092c-.018.078-.042.155-.052.235-.202 1.535-.835 2.857-1.992 3.897-.966.868-2.086 1.337-3.418 1.334-7.225-.014-14.45-.006-21.674-.006-6.916 0-13.83-.002-20.747.001-.7.001-1.385-.082-2.024-.368-2.338-1.045-3.414-2.94-3.594-5.418-.1-1.394.423-2.63 1.09-3.794 5.151-8.99 10.322-17.97 15.482-26.957a1.03 1.03 0 00.136-.483c.007-4.286.006-8.57.005-12.857 0-.088-.008-.177-.014-.297-.425 0-.832.006-1.239 0a2.488 2.488 0 01-1.245-.357c-1.122-.668-1.13-1.946 0-2.598.308-.178.674-.255 1.013-.378zM58.34 77.304c7.032 0 14.065-.005 21.098.008.62.001 1.092-.23 1.483-.669.57-.639.792-1.4.722-2.245-.055-.668-.358-1.262-.68-1.825-3.52-6.142-7.059-12.275-10.586-18.414-.113-.197-.232-.272-.464-.272-7.76.007-15.522.007-23.282 0-.246 0-.366.08-.483.285-2.37 4.141-4.756 8.274-7.125 12.415-1.268 2.215-2.514 4.443-3.77 6.666-.327.58-.466 1.187-.367 1.86.204 1.38 1.111 2.191 2.492 2.191zm9.941-26.766c-.053-.102-.09-.18-.133-.256-.865-1.506-1.718-3.018-2.6-4.512a4.283 4.283 0 01-.605-2.256c.012-4.23.003-8.462.012-12.693 0-.273-.064-.348-.345-.348-4.24.01-8.48.007-12.72.007h-.326v.38c0 4.276-.004 8.552.003 12.828a3.902 3.902 0 01-.543 2.025c-.884 1.515-1.752 3.04-2.625 4.561-.047.081-.086.167-.136.264z"/><path d="M59.717 68.847c.05-2.774 2.337-4.96 5.141-4.917 2.749.044 4.94 2.341 4.894 5.133-.044 2.706-2.352 4.942-5.055 4.898-2.807-.046-5.031-2.33-4.98-5.114zm5.007-3.256a3.362 3.362 0 00-3.326 3.35 3.35 3.35 0 003.356 3.343 3.348 3.348 0 003.324-3.346c-.002-1.848-1.518-3.359-3.354-3.347zm-16.399-9.3a3.355 3.355 0 013.347 3.353 3.35 3.35 0 01-3.325 3.345 3.342 3.342 0 01-3.355-3.338 3.341 3.341 0 013.333-3.36zm-1.67 3.341a1.679 1.679 0 001.663 1.67 1.66 1.66 0 001.674-1.678 1.659 1.659 0 00-1.669-1.656c-.916 0-1.667.75-1.668 1.664zM29.336 89.706a1.884 1.884 0 01-1.332-3.215l53.042-53.04a1.882 1.882 0 012.663 0 1.882 1.882 0 010 2.662L30.668 89.154c-.368.368-.85.552-1.332.552z"/></symbol><symbol viewBox="0 0 18 17" id="clock" xmlns="http://www.w3.org/2000/svg"><path d="M9.08 16.984C4.402 16.981.578 13.151.584 8.477.59 3.794 4.414-.022 9.093-.016c4.677.005 8.492 3.826 8.49 8.502-.001 4.677-3.827 8.501-8.503 8.498zm6.613-8.498c.004-3.65-2.933-6.568-6.526-6.612a6.605 6.605 0 00-6.692 6.612 6.594 6.594 0 006.604 6.605 6.594 6.594 0 006.614-6.605z"/><path d="M10.16 7.985l.663-.404c.462-.281.922-.564 1.384-.844a.941.941 0 011.283.314.935.935 0 01-.29 1.288c-.4.254-.805.497-1.208.744-.75.46-1.501.923-2.252 1.382-.55.337-1.23.1-1.42-.496a.918.918 0 01-.045-.28c-.003-2.17-.003-4.34-.001-6.508a.94.94 0 01.854-.946.94.94 0 011.016.77c.016.087.015.178.015.267v4.58z"/></symbol><symbol viewBox="0 0 119 112" id="delivery" xmlns="http://www.w3.org/2000/svg"><path d="M1.8.05h114.992c.995 0 1.803.809 1.803 1.805V80.91c0 8.403-3.436 16.044-8.972 21.579-5.537 5.536-13.176 8.973-21.58 8.973H1.802a1.804 1.804 0 01-1.804-1.804V64.163h3.609v43.69h84.438c7.407 0 14.144-3.031 19.028-7.915 4.884-4.885 7.917-11.621 7.917-19.028V3.658H-.004V1.855A1.808 1.808 0 011.802.05z"/><path d="M78.463 59.326c-.07-7.906-.032-15.812-.032-23.719v-1.603H19.237v27.108h11.898c15.168 0 30.335-.022 45.502.027 1.428.005 1.839-.369 1.826-1.813zM29.844 70.085c-.006-3.787 2.88-6.725 6.64-6.758 3.815-.033 6.83 2.926 6.852 6.727.021 3.812-2.964 6.837-6.746 6.836-3.83-.001-6.74-2.936-6.746-6.805zm3.523-.001c-.022 1.835 1.32 3.21 3.152 3.227 1.82.017 3.22-1.345 3.24-3.152.018-1.811-1.35-3.209-3.168-3.237-1.822-.027-3.202 1.327-3.224 3.162zm48.389.5c.012-3.746 2.976-6.729 6.695-6.737a6.763 6.763 0 016.79 6.818c-.02 3.792-3.084 6.871-6.805 6.843-3.756-.027-6.695-3.073-6.68-6.924zm3.491.12c.004 1.75 1.475 3.212 3.243 3.227 1.731.013 3.18-1.48 3.178-3.279a3.22 3.22 0 00-3.23-3.217c-1.748.005-3.196 1.488-3.19 3.268zM19.12 63.339c.008-.143.062-.283.117-.515h12.711c-2.299 1.738-3.326 3.914-3.624 6.54-2.395-.885-4.666-1.722-6.934-2.564-2.418-.896-2.418-.898-2.27-3.461z"/><path d="M44.66 69.73c-.029-2.9-1.39-5.04-3.712-7.04h39.363V42.625c4.82 0 9.435-.013 14.05.028.333.003.861.327.964.62 1.897 5.433 4.764 10.59 4.103 16.714-.343 3.177-.06 6.421-.06 9.712H96.69c-1.12-5.362-3.76-8.005-8.048-8.119-4.284-.114-7.146 2.653-8.438 8.15zm38.075-16.652H96.36c-.88-2.394-1.725-4.74-2.63-7.062-.08-.208-.56-.367-.857-.37-3.325-.026-6.65-.016-10.137-.016z"/></symbol><symbol viewBox="0 0 17 13" id="email" xmlns="http://www.w3.org/2000/svg"><path d="M2.554 13.064a1.687 1.687 0 01-1.702-1.687v-9.26c0-.934.745-1.683 1.68-1.683 4.212-.002 8.425-.002 12.637 0 .939 0 1.681.75 1.682 1.69v9.218c0 .984-.739 1.721-1.727 1.721H2.554zM15.163 3.64c-.023.018-.042.031-.059.047a7444.635 7444.635 0 01-4.025 3.807c-.466.44-.931.885-1.406 1.317a1.52 1.52 0 01-.902.414c-.459.041-.841-.137-1.169-.439-.277-.257-.542-.528-.812-.794L2.627 3.88a3.991 3.991 0 00-.087-.084v7.58h12.623zM3.243 2.12l5.414 5.346L14.31 2.12z"/></symbol><symbol viewBox="0 0 19 9" id="eye" xmlns="http://www.w3.org/2000/svg"><path d="M-.003 4.602v-.224l.167-.148C.33 4.079 4.31.569 9.314.569c5.003 0 8.984 3.51 9.15 3.66l.167.149v.224c0 .721-4.532 4.033-9.317 4.033S-.003 5.323-.003 4.602zm9.317 3.033c3.798 0 7.012-2.138 8.066-3-1.117-.862-4.336-3.066-8.066-3.066-3.737 0-6.961 2.212-8.072 3.071 1.02.839 4.223 2.995 8.072 2.995z"/><path d="M9.111 7.635a3.036 3.036 0 01-3.033-3.033A3.036 3.036 0 019.111 1.57a3.036 3.036 0 013.033 3.033 3.037 3.037 0 01-3.033 3.033z"/></symbol><symbol viewBox="0 0 8 29" id="fork" xmlns="http://www.w3.org/2000/svg"><path d="M3.103 10.388c.036-.087.102-.173.105-.261.087-2.173.164-4.345.248-6.517.04-1.026.09-2.051.137-3.076.003-.081.017-.161.023-.242.014-.173.11-.313.323-.316.213-.003.36.113.39.299.038.232.091.464.1.697.095 3.029.185 6.058.28 9.086.003.105.04.21.06.314.04.005.927.01.966.015.044-.102.12-.203.125-.305.105-2.06.2-4.118.298-6.176.058-1.195.12-2.39.176-3.584.01-.198.102-.342.346-.347.24-.005.325.148.342.325.026.257.053.515.065.774.084 1.832.162 3.665.247 5.497.05 1.049.116 2.098.16 3.148.04.939-.289 1.762-1.158 2.399-.342.25-.732.418-1.189.465-.086.009-.17.026-.292.046.05.488.104.968.146 1.449.08.909.154 1.819.226 2.729.102 1.265.19 2.529.3 3.793.1 1.143.252 2.283.32 3.427.037.609-.056 1.223-.092 1.835-.04.676-.264 1.313-.612 1.918-.183.32-.458.585-.858.727-.465.165-1.043-.025-1.394-.468-.438-.553-.663-1.172-.748-1.83-.037-.287-.129-.574-.126-.861.011-.822.042-1.645.096-2.467.072-1.12.166-2.24.262-3.36.06-.707.145-1.414.211-2.121.052-.555.09-1.111.136-1.666.08-.95.154-1.9.246-2.85.02-.213-.044-.282-.313-.317-.955-.124-1.547-.65-1.963-1.334C.302 10.59.307 9.9.35 9.2c.088-1.46.144-2.921.218-4.383C.636 3.51.711 2.203.781.895.791.71.794.524.797.338.8.13.958-.054 1.148-.032c.224.029.35.148.358.35.05 1.196.103 2.39.165 3.586.103 2.01.213 4.02.32 6.03.004.089-.013.18.01.266.015.057.083.106.127.158zm.533 2.39c-.022.407-.03.8-.065 1.194-.1 1.135-.218 2.269-.319 3.404-.07.789-.118 1.58-.19 2.369-.105 1.159-.235 2.315-.33 3.475-.066.828-.159 1.657-.008 2.488.114.62.22 1.246.588 1.802.13.196.374.433.605.465.31.044.483-.248.618-.472a4.275 4.275 0 00.62-2.167c.016-1.024-.048-2.05-.122-3.072-.087-1.193-.226-2.382-.336-3.573-.083-.894-.158-1.788-.235-2.682-.056-.652-.109-1.305-.164-1.956-.036-.424-.076-.848-.113-1.275zm-2.35-2.673c-.019-.686-.052-1.373-.082-2.06-.005-.111-.038-.222-.058-.334a.407.407 0 00-.089.263c-.008.647-.005 1.293-.027 1.94a1.96 1.96 0 00.375 1.217c.4.563.946.946 1.801.916.552-.02 1.105-.001 1.658-.006.113-.001.231-.017.34-.046 1.18-.305 1.596-1.27 1.623-2.133.022-.693-.055-1.388-.09-2.082-.006-.09-.026-.178-.04-.266a62.24 62.24 0 00-.187 2.74c-.019.367-.42.624-1.218.616-.828.017-1.22-.22-1.22-.627.002-.597.001-1.192.001-1.79a4.494 4.494 0 00-.116.005c0 .169.01.338-.002.507-.028.468-.036.938-.107 1.402-.002.52-.984.503-1.355.503-.744 0-1.194-.315-1.207-.765z"/></symbol><symbol viewBox="0 0 29 25" id="heart" xmlns="http://www.w3.org/2000/svg"><path d="M14.268 9.816C14.268-2.587.947.513.947 8.086c0 7.575 13.32 15.784 13.32 15.784S27.98 15.66 27.98 8.087c0-7.574-13.714-10.674-13.714 1.729z"/></symbol><symbol viewBox="0 0 14 15" id="like" xmlns="http://www.w3.org/2000/svg"><path d="M10.579 4.577c.338.001.676-.003 1.013.007 1.12.034 2.322 1.145 2.137 2.588a2.752 2.752 0 01-.391 1.115.16.16 0 00-.02.107 2.593 2.593 0 01-.235 1.792.31.31 0 00-.027.16c.058.673-.08 1.294-.484 1.847a.25.25 0 00-.043.14c-.008.45-.088.885-.303 1.286-.337.623-.863 1.014-1.538 1.2a3.27 3.27 0 01-.767.12c-.576.016-1.153.014-1.73-.002-.73-.02-1.436-.19-2.13-.408-.624-.195-1.246-.4-1.866-.606a2.54 2.54 0 00-.844-.129c-.76.008-1.518.004-2.276.002A1.136 1.136 0 01-.08 12.662c-.008-.836-.005-1.673-.005-2.509 0-1.08.003-2.163 0-3.244-.001-.666.49-1.174 1.158-1.178.778-.004 1.554-.003 2.33.002.1 0 .182-.022.247-.096.263-.293.532-.582.785-.883.442-.526.873-1.06 1.31-1.589.16-.193.229-.423.286-.659.107-.44.203-.885.325-1.322A1.88 1.88 0 016.979.22a1.05 1.05 0 01.658-.25c.493-.01.969.073 1.416.292.59.29.94.774 1.096 1.398.24.963.183 1.907-.247 2.815-.013.03-.025.06-.044.101l.72.001zm-7.201 8.065h.099c.336-.013.662.044.978.147.409.133.814.277 1.22.415 1.107.373 2.23.647 3.413.594.375-.016.752.015 1.126-.05.63-.11 1.03-.49 1.133-1.095a2.405 2.405 0 00-.004-.776c-.007-.042-.021-.08.03-.117.486-.344.685-1.068.435-1.609-.045-.098-.028-.146.039-.219.322-.35.443-.763.355-1.233a1.617 1.617 0 00-.277-.66c.213-.032.343-.163.422-.337.086-.189.168-.384.212-.586a1.216 1.216 0 000-.477c-.08-.437-.563-.915-1.135-.91-1.003.008-2.007.003-3.011.003h-.141v-.079c.002-.032.004-.065.008-.098.044-.334.155-.649.285-.958.119-.277.246-.55.36-.829.258-.618.269-1.248.082-1.885-.107-.36-.332-.607-.706-.688-.183-.039-.372-.052-.56-.068-.031-.003-.076.028-.098.057-.156.19-.225.418-.281.652-.09.38-.178.761-.274 1.14a2.398 2.398 0 01-.483.96c-.421.508-.84 1.018-1.251 1.533-.328.41-.665.806-1.072 1.14-.224.183-.472.301-.772.275-.043-.004-.087 0-.132 0z"/></symbol><symbol viewBox="0 0 14 21" id="marker" xmlns="http://www.w3.org/2000/svg"><path d="M6.35 19.135c-.538-.995-1.074-1.99-1.611-2.986l-1.957-3.626c-.532-.985-1.075-1.965-1.597-2.956-.48-.909-.73-1.872-.712-2.896a5.959 5.959 0 01.51-2.36 6.2 6.2 0 011.577-2.13A6.668 6.668 0 015.69.63a6.852 6.852 0 013.802.29c1.307.478 2.347 1.277 3.115 2.376.912 1.304 1.234 2.746 1.03 4.296-.11.837-.435 1.602-.844 2.343-.476.864-.94 1.734-1.41 2.601l-1.2 2.216c-.54 1-1.075 2.001-1.616 3.001-.486.9-.975 1.798-1.482 2.732-.257-.472-.497-.91-.735-1.349zM3.116 6.745c.009 2.072 1.787 3.746 3.975 3.741 2.19-.005 3.965-1.685 3.963-3.754-.003-2.073-1.79-3.756-3.984-3.75-2.182.004-3.964 1.7-3.954 3.762z"/></symbol><symbol viewBox="0 0 11 3" id="minus" xmlns="http://www.w3.org/2000/svg"><path d="M.549 1.719h10"/></symbol><symbol viewBox="0 0 119 112" id="pendant" xmlns="http://www.w3.org/2000/svg"><path d="M1.79.043h114.99c.996 0 1.804.808 1.804 1.804v79.055c0 8.403-3.436 16.044-8.972 21.58-5.537 5.535-13.176 8.972-21.58 8.972H1.79a1.804 1.804 0 01-1.804-1.804V64.155h3.609v43.691h84.438c7.407 0 14.143-3.032 19.027-7.916 4.885-4.885 7.917-11.62 7.917-19.028V3.652H-.015V1.846A1.806 1.806 0 011.79.043z"/><path d="M59.178 20.67c.083.047.16.121.248.138a5.275 5.275 0 012.968 1.671c.523.576.844 1.293 1.16 2.012a8.611 8.611 0 002.046 2.875 9.25 9.25 0 002.524 1.67c.567.253 1.202.35 1.802.533.822.25 1.665.187 2.498.145.51-.026 1.011-.186 1.518-.27.708-.119 1.421-.325 2.127-.307.728.02 1.454.19 2.142.54 1.011.513 1.82 1.212 2.384 2.187a6.11 6.11 0 01.755 2.207c.083.564.023 1.101-.072 1.628-.092.504-.315.993-.532 1.465-.4.874-.888 1.715-1.034 2.683-.099.656-.232 1.32-.22 1.976.016.85.117 1.692.37 2.526.517 1.714 1.444 3.134 2.804 4.283.41.346.846.661 1.251 1.013.568.494.981 1.095 1.312 1.781.44.914.498 1.866.421 2.835a5.478 5.478 0 01-.327 1.437 5.234 5.234 0 01-1.849 2.44 5.126 5.126 0 01-2.004.89c-1.33.281-2.636.618-3.8 1.377-1.004.655-1.873 1.45-2.549 2.425a8.84 8.84 0 00-1.34 2.988c-.26 1.084-.262 2.176-.262 3.277.001 1.715-.717 3.088-2.043 4.153-1.216.977-2.617 1.348-4.15 1.18-1.167-.13-2.163-.668-3.027-1.444a9.161 9.161 0 00-2.073-1.416c-.704-.345-1.439-.643-2.233-.713a35.788 35.788 0 00-2.244-.14c-.788-.02-1.535.196-2.288.426-.84.257-1.589.666-2.3 1.153-.562.385-1.06.863-1.619 1.255-.55.388-1.148.717-1.842.774-.598.05-1.204.14-1.796.09-.715-.06-1.386-.31-2.03-.67-.982-.545-1.737-1.296-2.23-2.28a5.781 5.781 0 01-.519-1.663c-.089-.56-.038-1.145-.029-1.718.012-.736-.126-1.444-.274-2.162-.315-1.53-1.049-2.829-2.075-3.976a8.428 8.428 0 00-2.708-2.016c-.782-.37-1.59-.6-2.438-.767-1.442-.283-2.707-.905-3.596-2.138a6.236 6.236 0 01-.936-1.986c-.217-.77-.215-1.549-.104-2.304.132-.908.473-1.784 1.124-2.462.53-.552 1.132-1.033 1.716-1.529.78-.66 1.5-1.37 1.98-2.283.312-.595.623-1.194.88-1.814.157-.383.245-.804.306-1.217.088-.595.202-1.204.16-1.797-.057-.792-.232-1.578-.397-2.358-.162-.766-.576-1.432-.914-2.129-.272-.56-.439-1.158-.552-1.785-.149-.826-.03-1.616.217-2.369.402-1.229 1.144-2.245 2.26-2.955.717-.458 1.484-.724 2.332-.852.73-.109 1.403.02 2.087.197 1.304.338 2.632.483 3.964.307.687-.09 1.351-.365 2.023-.564.955-.284 1.766-.838 2.512-1.464.796-.667 1.492-1.44 1.962-2.39.345-.693.663-1.403 1.065-2.06.688-1.129 1.67-1.9 2.967-2.245.273-.072.533-.195.8-.294zm17.126 27.986c-.019-9.942-8.012-17.989-17.986-18.005-9.929-.016-18 8.02-18.02 18.004-.02 9.883 8.032 18.052 18.005 18.016 9.977.025 18.02-8.116 18.001-18.015z"/><path d="M48.08 90.828c.003-.02.016-.054.008-.06-.513-.389-.664-1-.938-1.534-.431-.84-.777-1.73-1.277-2.527-.422-.674-1.05-1.177-1.81-1.522-.525-.239-1.071-.309-1.615-.372-.395-.046-.818.058-1.217.147-.466.103-.92.266-1.38.4-.515.146-1.027.306-1.548.428-.44.103-.898.264-1.282-.165-.283-.315-.254-.7-.123-1.014.407-.973.887-1.915 1.322-2.876.393-.868.758-1.749 1.148-2.617.44-.978.895-1.949 1.342-2.923.236-.516.47-1.033.707-1.554.473.434.899.867 1.369 1.248.653.53 1.365.974 2.174 1.238.555.181 1.098.426 1.666.528.774.14 1.555.323 2.358.146.463-.102.943-.128 1.405-.233a10.07 10.07 0 001.216-.38c1.179-.432 2.109-1.242 3.078-2 .442-.348.979-.577 1.479-.847.076-.04.185-.02.329-.03-.35.754-.686 1.467-1.013 2.183-.282.621-.553 1.246-.832 1.868-.287.641-.578 1.28-.864 1.922-.29.65-.575 1.302-.866 1.951-.276.616-.56 1.23-.836 1.845-.297.66-.587 1.323-.886 1.982-.326.72-.66 1.438-.99 2.157-.285.623-.588 1.238-.848 1.872-.135.33-.372.54-.637.74zm19.772 0c-.625-.407-.754-1.12-1.049-1.726a118.05 118.05 0 01-1.53-3.31c-.395-.88-.754-1.777-1.149-2.656-.436-.97-.906-1.927-1.342-2.898-.497-1.104-.968-2.22-1.46-3.326-.318-.716-.655-1.425-.982-2.137a1.368 1.368 0 01-.146-.497c.225.086.475.135.671.265.68.45 1.357.904 2.001 1.4a9.667 9.667 0 002.4 1.348 7.818 7.818 0 003.246.55 9.584 9.584 0 002.51-.453c1.498-.492 2.824-1.309 3.884-2.508.068-.077.14-.15.247-.267.182.37.361.714.523 1.067.356.776.707 1.554 1.054 2.334.282.636.55 1.28.833 1.914.274.613.566 1.218.843 1.83.295.65.58 1.303.871 1.955.127.283.258.564.39.846.244.523.11 1.23-.603 1.332-.222.032-.465-.01-.688-.067-.77-.197-1.553-.367-2.297-.64a5.612 5.612 0 00-1.747-.362c-.54-.017-1.106.127-1.628.3-.81.268-1.458.81-1.923 1.517-.342.52-.59 1.1-.873 1.658-.36.706-.706 1.42-1.074 2.121-.08.154-.228.274-.344.41zm-19.86-52.555c2.842-2.85 6.352-4.28 10.335-4.276 3.992.002 7.51 1.457 10.33 4.322 2.836 2.88 4.273 6.364 4.263 10.446-.023 8.3-6.87 14.611-14.64 14.566a14.635 14.635 0 01-14.614-14.695c.034-4.042 1.482-7.508 4.326-10.363zm3.744 11.556c.285.392.57.785.847 1.181.584.835 1.128 1.701 1.757 2.5.654.832 1.567.947 2.415.357 1.016-.707 2-1.46 3-2.192.915-.67 1.833-1.339 2.751-2.008.878-.64 1.77-1.264 2.633-1.926.483-.37 1.012-.668 1.241-1.338.371-1.083-.39-1.985-1.298-2.179-.513-.11-.965.092-1.374.39-1.129.82-2.257 1.641-3.383 2.465-1.325.97-2.65 1.938-3.965 2.922-.203.151-.315.15-.452-.05-.423-.623-.858-1.238-1.277-1.862-.334-.496-.724-.948-1.33-1.06-1.055-.196-1.982.525-1.96 1.71-.068.387.144.744.395 1.09z"/></symbol><symbol viewBox="0 0 14 17" id="phone" xmlns="http://www.w3.org/2000/svg"><path d="M10.009 16.44c-.181-.024-.363-.042-.542-.076-.664-.122-1.27-.392-1.85-.729-1.795-1.042-3.215-2.473-4.376-4.18-.828-1.217-1.502-2.509-1.96-3.91a12.17 12.17 0 01-.556-2.557C.665 4.39.645 3.79.78 3.194c.223-.992.77-1.77 1.58-2.37A3.585 3.585 0 013.55.218c.276-.075.553-.094.828-.006.35.112.59.353.749.676.236.478.404.982.54 1.495.11.411.209.826.29 1.243.032.17.025.355.002.527-.04.291-.216.504-.452.668-.27.187-.572.312-.874.436-.251.102-.501.207-.75.312-.206.087-.285.261-.213.474.55 1.628 1.363 3.118 2.39 4.493.542.725 1.14 1.4 1.802 2.018.209.196.415.181.595-.046.286-.36.59-.705.97-.972.246-.173.508-.303.816-.317a.987.987 0 01.572.14c.845.521 1.625 1.124 2.278 1.878.124.142.229.306.317.474.188.36.174.726-.02 1.081-.208.38-.513.672-.862.92a3.893 3.893 0 01-1.964.713c-.025.002-.05.01-.073.014z"/></symbol><symbol viewBox="0 0 11 11" id="plus" xmlns="http://www.w3.org/2000/svg"><path d="M5.549.719v10m-5-5h10"/></symbol><symbol viewBox="0 0 119 112" id="processes" xmlns="http://www.w3.org/2000/svg"><path d="M1.79.043h114.99c.996 0 1.804.808 1.804 1.804v79.055c0 8.403-3.436 16.044-8.972 21.58-5.537 5.535-13.176 8.972-21.58 8.972H1.79a1.804 1.804 0 01-1.804-1.804V64.155h3.609v43.691h84.438c7.407 0 14.143-3.032 19.027-7.916 4.885-4.885 7.917-11.62 7.917-19.028V3.652H-.015V1.846A1.806 1.806 0 011.79.043z"/><path d="M55.25 25.288a1.1 1.1 0 00.781.323 1.1 1.1 0 00.781-.323l1.366-1.367a1.104 1.104 0 000-1.561l-1.366-1.367a1.105 1.105 0 00-1.562 0l-1.367 1.367a1.104 1.104 0 000 1.56zM27.607 40.402a1.106 1.106 0 001.367.755l1.857-.536c.586-.169.924-.78.755-1.367l-.536-1.857a1.104 1.104 0 00-1.367-.755l-1.857.536a1.104 1.104 0 00-.755 1.367zM84.99 68.74l-.535-1.857a1.103 1.103 0 00-1.367-.755l-1.857.536c-.586.17-.923.782-.754 1.367l.535 1.858a1.107 1.107 0 001.368.754l1.857-.536c.585-.169.923-.78.754-1.367zm-4.08-28.72l1.87.49a1.1 1.1 0 00.837-.114c.254-.148.438-.39.512-.673l.49-1.87a1.104 1.104 0 00-.787-1.348l-1.87-.49a1.105 1.105 0 00-1.347.787l-.491 1.87a1.104 1.104 0 00.787 1.347zM56.812 81.998c-.415-.414-1.147-.414-1.562 0l-1.366 1.367a1.104 1.104 0 000 1.56l1.366 1.368a1.105 1.105 0 001.562 0l1.367-1.367a1.106 1.106 0 000-1.561z"/><path d="M77.175 65.317l6.112-1.076a1.104 1.104 0 10-.383-2.174l-7.076 1.246-3.472-1.918 9.679-1.97a1.102 1.102 0 10-.44-2.162l-12.221 2.486-3.351-1.85 4.38-.772a1.103 1.103 0 10-.382-2.174l-7.076 1.246-1.424-.786a5.473 5.473 0 00.285-1.735c0-.677-.13-1.323-.353-1.922l1.428-.834 7.104 1.075a1.104 1.104 0 00.331-2.182l-4.398-.666 3.306-1.93 12.277 2.19a1.104 1.104 0 00.388-2.173l-9.724-1.735 3.425-2 7.104 1.076a1.104 1.104 0 00.331-2.183l-6.137-.93 2.207-5.8a1.104 1.104 0 10-2.064-.785l-2.554 6.715-3.425 2 3.267-9.321a1.104 1.104 0 00-2.083-.731l-4.125 11.77-3.307 1.93 1.582-4.157a1.105 1.105 0 00-2.064-.785l-2.554 6.715-1.491.87a5.463 5.463 0 00-3.142-1.624v-1.905l4.51-5.592a1.104 1.104 0 00-1.717-1.387l-2.793 3.462V39.01l8.083-9.497a1.104 1.104 0 00-1.681-1.431l-6.402 7.522v-3.966l4.51-5.593a1.103 1.103 0 10-1.717-1.386l-3.897 4.83-3.896-4.83a1.105 1.105 0 00-1.718 1.386l4.51 5.593v3.966l-6.402-7.522a1.104 1.104 0 00-1.681 1.43l8.083 9.498v3.828l-2.792-3.462a1.105 1.105 0 00-1.718 1.387l4.51 5.592v2.024a5.485 5.485 0 00-2.845 1.822l-1.897-1.048-2.715-6.652a1.105 1.105 0 00-2.044.835l1.68 4.118-3.35-1.85-4.407-11.667a1.103 1.103 0 10-2.066.78l3.49 9.24-3.471-1.917-2.715-6.652a1.105 1.105 0 00-2.045.834l2.346 5.746-6.113 1.076a1.104 1.104 0 00.383 2.175l7.077-1.246 3.47 1.917-6.422 1.306a5.194 5.194 0 011.309 1.987l8.096-1.647 3.352 1.85-4.381.772a1.104 1.104 0 10.383 2.174l7.076-1.246 1.939 1.07a5.485 5.485 0 00-.218 1.52c0 .55.083 1.082.234 1.583l-1.891 1.104-7.105-1.075a1.104 1.104 0 00-.33 2.183l4.398.666-3.306 1.93-7.91-1.412v2.243l4.968.887-3.425 1.999-1.542-.233v2.233l.245.037-.245.642v6.12c.036-.057.076-.111.1-.176l2.556-6.716 3.425-2-3.268 9.322a1.105 1.105 0 002.084.73l4.125-11.77 3.306-1.93-1.582 4.158a1.104 1.104 0 002.064.785l2.555-6.716 1.83-1.068a5.474 5.474 0 002.802 1.773v1.954l-4.51 5.593a1.104 1.104 0 101.718 1.386l2.792-3.462v3.828l-8.083 9.497a1.103 1.103 0 101.68 1.43l6.403-7.52v3.965l-4.51 5.593a1.104 1.104 0 101.718 1.386l3.896-4.831 3.897 4.83a1.1 1.1 0 001.552.168 1.104 1.104 0 00.166-1.553l-4.511-5.593v-3.965l6.402 7.52a1.102 1.102 0 001.556.126 1.102 1.102 0 00.125-1.556l-8.083-9.497v-3.828l2.793 3.462a1.1 1.1 0 001.552.167 1.104 1.104 0 00.166-1.553l-4.511-5.593v-1.835a5.473 5.473 0 003.277-1.772l1.465.809 2.716 6.652a1.103 1.103 0 102.044-.834l-1.681-4.12 3.35 1.852 4.408 11.667a1.103 1.103 0 102.065-.78l-3.49-9.241 3.472 1.917 2.715 6.652a1.105 1.105 0 002.045-.833zM29.973 56.06h-2.72a.318.318 0 010-.636h2.72c.175 0 .318.143.318.318a.319.319 0 01-.318.318zm0 4.662h-2.72a.318.318 0 110-.636h2.72a.318.318 0 010 .636zm0 5.086h-2.72a.318.318 0 110-.636h2.72a.318.318 0 010 .636z"/><path d="M32.488 58.38h-5.235a.318.318 0 010-.636h5.235c.175 0 .318.143.318.318a.319.319 0 01-.318.318zm0 4.662h-5.235a.318.318 0 110-.636h5.235a.318.318 0 010 .636zm0 5.086h-5.235a.318.318 0 110-.636h5.235a.318.318 0 010 .636z"/><path d="M33.794 74.685a6.65 6.65 0 012.57 5.244 6.652 6.652 0 01-6.643 6.645 6.652 6.652 0 01-6.644-6.645 6.65 6.65 0 012.57-5.244V50.977a4.077 4.077 0 014.074-4.073 4.077 4.077 0 014.073 4.073zm-3.821-3.79a.318.318 0 000-.636h-2.72a.318.318 0 100 .636zm3.098-19.72a3.35 3.35 0 00-6.7 0v18.381h6.7z"/></symbol><symbol viewBox="0 0 120 113" id="purity" xmlns="http://www.w3.org/2000/svg"><path d="M2.671.777h114.991c.995 0 1.802.808 1.802 1.804v79.055c0 8.404-3.435 16.044-8.972 21.579-5.536 5.537-13.175 8.974-21.578 8.974H2.671a1.804 1.804 0 01-1.804-1.805V64.889h3.608v43.691h84.44c7.405 0 14.142-3.032 19.026-7.916 4.884-4.885 7.917-11.621 7.917-19.028V4.385H.867V2.581c0-.996.807-1.804 1.804-1.804z"/><path d="M60.997 23.92c1.296.17 2.597.305 3.886.518 4.706.777 9.019 2.554 12.946 5.245 5.254 3.603 9.182 8.33 11.74 14.163 1.512 3.443 2.384 7.05 2.649 10.817.326 4.64-.273 9.132-1.824 13.509-1.38 3.89-3.436 7.379-6.131 10.504-2.991 3.469-6.54 6.215-10.654 8.213-3.305 1.605-6.784 2.652-10.445 3.056-.723.079-1.445.17-2.167.255h-3.625c-.976-.122-1.954-.236-2.93-.367a31.216 31.216 0 01-12.05-4.226c-7.278-4.375-12.25-10.608-14.844-18.706-1.356-4.232-1.793-8.583-1.356-12.992.625-6.296 2.847-11.987 6.729-17.012 3.198-4.142 7.136-7.378 11.838-9.663 3.344-1.626 6.864-2.688 10.578-3.065.679-.07 1.357-.165 2.035-.25zM28.149 56.685c-.22 17.212 13.506 31.256 30.755 31.414a30.975 30.975 0 0031.32-30.793c.155-17.06-13.521-31.193-31.09-31.312-16.831.122-30.767 13.463-30.985 30.69z"/><path d="M64.883 24.438c4.706.777 9.019 2.554 12.946 5.245 5.254 3.603 9.182 8.33 11.74 14.163 1.512 3.443 2.384 7.05 2.649 10.817.326 4.64-.273 9.132-1.824 13.509-1.38 3.89-3.436 7.379-6.131 10.504-2.991 3.469-6.54 6.215-10.654 8.213-3.305 1.605-6.784 2.652-10.445 3.056-.723.079-1.445.17-2.167.255h-3.625c-.976-.122-1.954-.236-2.93-.367a31.216 31.216 0 01-12.05-4.226c-7.278-4.375-12.25-10.608-14.844-18.706-1.356-4.232-1.793-8.583-1.356-12.992.625-6.296 2.847-11.987 6.729-17.012 3.198-4.142 7.136-7.378 11.838-9.663 3.344-1.626 6.864-2.688 10.578-3.065.679-.07 1.357-.165 2.035-.25h3.625c1.296.172 2.597.306 3.886.519zM28.149 56.685c-.22 17.212 13.506 31.256 30.755 31.414a30.975 30.975 0 0031.32-30.793c.155-17.06-13.521-31.193-31.09-31.312-16.831.122-30.767 13.463-30.985 30.69z"/><path d="M41.468 43.79c.018-2.296 1.65-3.917 3.796-3.815 1.927.091 3.368 1.625 3.384 3.764.036 4.935.032 9.87.002 14.804-.011 2.055-1.2 3.418-3.115 3.731-1.786.293-3.641-1.004-3.953-2.784a8.113 8.113 0 01-.115-1.348c-.01-2.349-.004-4.698-.004-7.046 0-2.436-.017-4.87.004-7.306zm5.066 2.067c-.002-.84.02-1.684-.046-2.52-.072-.902-.964-1.442-1.831-1.176-.771.236-1.086.775-1.087 1.89-.003 4.745-.003 9.49.002 14.235 0 .277.028.56.082.831.115.58.625 1.013 1.21 1.063 1.044.088 1.659-.517 1.667-1.705.015-2.438.005-4.875.005-7.312 0-1.769.004-3.538-.001-5.306z"/><path d="M41.468 43.79c.018-2.296 1.65-3.917 3.796-3.815 1.927.091 3.368 1.625 3.384 3.764.036 4.935.032 9.87.002 14.804-.011 2.055-1.2 3.418-3.115 3.731-1.786.293-3.641-1.004-3.953-2.784a8.113 8.113 0 01-.115-1.348c-.01-2.349-.004-4.698-.004-7.046 0-2.436-.017-4.87.004-7.306zm5.066 2.067c-.002-.84.02-1.684-.046-2.52-.072-.902-.964-1.442-1.831-1.176-.771.236-1.086.775-1.087 1.89-.003 4.745-.003 9.49.002 14.235 0 .277.028.56.082.831.115.58.625 1.013 1.21 1.063 1.044.088 1.659-.517 1.667-1.705.015-2.438.005-4.875.005-7.312 0-1.769.004-3.538-.001-5.306zM66.848 67.975c3.522-3.524 7.044-7.05 10.57-10.57 1.026-1.023 2.256-1.406 3.657-.986 1.426.427 2.277 1.427 2.52 2.89.203 1.21-.21 2.247-1.07 3.109-1.66 1.664-3.323 3.325-4.985 4.988-1.892 1.89-3.767 3.8-5.68 5.669-2.014 1.968-5.158 1.145-5.974-1.546-.098-.323-.11-.673-.16-1.011a3.72 3.72 0 011.122-2.543zm1.84 3.928c.614.304 1.218.168 1.81-.422a4499.98 4499.98 0 0010.477-10.477c.713-.718.735-1.62.108-2.23-.621-.6-1.477-.572-2.187.134-3.53 3.515-7.054 7.037-10.562 10.575-.267.27-.393.677-.584 1.021.083.694.399 1.13.939 1.398z"/><path d="M66.848 67.975c3.522-3.524 7.044-7.05 10.57-10.57 1.026-1.023 2.256-1.406 3.657-.986 1.426.427 2.277 1.427 2.52 2.89.203 1.21-.21 2.247-1.07 3.109-1.66 1.664-3.323 3.325-4.985 4.988-1.892 1.89-3.767 3.8-5.68 5.669-2.014 1.968-5.158 1.145-5.974-1.546-.098-.323-.11-.673-.16-1.011a3.72 3.72 0 011.122-2.543zm1.84 3.928c.614.304 1.218.168 1.81-.422a4499.98 4499.98 0 0010.477-10.477c.713-.718.735-1.62.108-2.23-.621-.6-1.477-.572-2.187.134-3.53 3.515-7.054 7.037-10.562 10.575-.267.27-.393.677-.584 1.021.083.694.399 1.13.939 1.398zM61.16 82.065c-1.475.61-2.847.296-3.97-.815-3.552-3.518-7.09-7.051-10.604-10.607-1.04-1.052-1.424-2.335-.898-3.788.51-1.41 1.555-2.185 3.017-2.37 1.19-.15 2.19.325 3.02 1.153 2.317 2.312 4.622 4.635 6.93 6.956 1.275 1.282 2.558 2.557 3.817 3.855.626.645.907 1.443.876 2.352-.05 1.54-.763 2.675-2.188 3.264zm-.564-4.557c-2.356-2.4-4.736-4.775-7.113-7.154-1.112-1.113-2.235-2.215-3.35-3.327-.463-.464-1.07-.617-1.593-.34-.4.21-.75.693-.908 1.132-.23.635.224 1.124.659 1.559 3.386 3.385 6.77 6.77 10.159 10.153.18.18.384.344.595.488.475.325 1.02.357 1.45.022.374-.291.612-.755.966-1.215-.338-.524-.538-.984-.865-1.318z"/><path d="M61.16 82.065c-1.475.61-2.847.296-3.97-.815-3.552-3.518-7.09-7.051-10.604-10.607-1.04-1.052-1.424-2.335-.898-3.788.51-1.41 1.555-2.185 3.017-2.37 1.19-.15 2.19.325 3.02 1.153 2.317 2.312 4.622 4.635 6.93 6.956 1.275 1.282 2.558 2.557 3.817 3.855.626.645.907 1.443.876 2.352-.05 1.54-.763 2.675-2.188 3.264zm-.564-4.557c-2.356-2.4-4.736-4.775-7.113-7.154-1.112-1.113-2.235-2.215-3.35-3.327-.463-.464-1.07-.617-1.593-.34-.4.21-.75.693-.908 1.132-.23.635.224 1.124.659 1.559 3.386 3.385 6.77 6.77 10.159 10.153.18.18.384.344.595.488.475.325 1.02.357 1.45.022.374-.291.612-.755.966-1.215-.338-.524-.538-.984-.865-1.318zM63.495 43.342c-.657-1.423-.43-2.823.65-3.94 2.067-2.136 4.169-4.243 6.343-6.27 1.34-1.25 3.427-1.068 4.72.232 1.327 1.335 1.49 3.396.233 4.776-1.462 1.607-3.037 3.112-4.57 4.654-.591.595-1.183 1.192-1.81 1.75-.713.64-1.41.87-2.35.877-1.495-.034-2.6-.742-3.216-2.079zm2.694-.119c.635.277 1.198.062 1.65-.386 1.974-1.95 3.95-3.899 5.87-5.902.292-.304.465-.915.395-1.334-.207-1.257-1.644-1.56-2.635-.58a442.735 442.735 0 00-5.598 5.62c-.31.317-.488.764-.625.986.055.88.363 1.342.944 1.596z"/><path d="M63.495 43.342c-.657-1.423-.43-2.823.65-3.94 2.067-2.136 4.169-4.243 6.343-6.27 1.34-1.25 3.427-1.068 4.72.232 1.327 1.335 1.49 3.396.233 4.776-1.462 1.607-3.037 3.112-4.57 4.654-.591.595-1.183 1.192-1.81 1.75-.713.64-1.41.87-2.35.877-1.495-.034-2.6-.742-3.216-2.079zm2.694-.119c.635.277 1.198.062 1.65-.386 1.974-1.95 3.95-3.899 5.87-5.902.292-.304.465-.915.395-1.334-.207-1.257-1.644-1.56-2.635-.58a442.735 442.735 0 00-5.598 5.62c-.31.317-.488.764-.625.986.055.88.363 1.342.944 1.596zM58.208 45.572c2.101 2.075 4.218 4.139 6.225 6.303 1.327 1.43 1.121 3.543-.285 4.865-1.357 1.276-3.427 1.343-4.79.033a209.802 209.802 0 01-6.305-6.317c-1.009-1.057-1.151-2.393-.566-3.726.611-1.39 1.742-2.073 3.257-2.11.968-.05 1.805.3 2.464.952zm-3.778 1.965c-.295.645-.145 1.226.338 1.714 1.94 1.96 3.877 3.926 5.84 5.864.664.656 1.604.625 2.185.014.569-.598.545-1.461-.121-2.135a489.355 489.355 0 00-5.766-5.761c-.288-.283-.716-.424-1.079-.631-.682.096-1.138.369-1.397.935z"/><path d="M58.208 45.572c2.101 2.075 4.218 4.139 6.225 6.303 1.327 1.43 1.121 3.543-.285 4.865-1.357 1.276-3.427 1.343-4.79.033a209.802 209.802 0 01-6.305-6.317c-1.009-1.057-1.151-2.393-.566-3.726.611-1.39 1.742-2.073 3.257-2.11.968-.05 1.805.3 2.464.952zm-3.778 1.965c-.295.645-.145 1.226.338 1.714 1.94 1.96 3.877 3.926 5.84 5.864.664.656 1.604.625 2.185.014.569-.598.545-1.461-.121-2.135a489.355 489.355 0 00-5.766-5.761c-.288-.283-.716-.424-1.079-.631-.682.096-1.138.369-1.397.935zM40.607 73.786h5.048v2.009h-5.048z"/><path d="M40.607 73.786h5.048v2.009h-5.048zM81.133 52.129h-5.036v-2.003h5.036z"/><path d="M81.133 52.129h-5.036v-2.003h5.036zM62.527 62.312h-4.982v-2.057h4.982z"/><path d="M62.527 62.312h-4.982v-2.057h4.982zM52.467 32.39h4.993v2.012h-4.993z"/><path d="M52.467 32.39h4.993v2.012h-4.993zM37.189 56.366H32.18v-1.982h5.009z"/><path d="M37.189 56.366H32.18v-1.982h5.009zM75.204 79.154h-4.982v-1.99h4.982z"/><path d="M75.204 79.154h-4.982v-1.99h4.982z"/><g><path d="M28.987 88.757a1.884 1.884 0 01-1.332-3.215l60.359-59.627a1.882 1.882 0 112.663 2.663L30.319 88.205c-.368.368-.85.552-1.332.552z"/></g></symbol><symbol viewBox="0 0 119 112" id="quality" xmlns="http://www.w3.org/2000/svg"><path d="M1.79.043h114.99c.996 0 1.804.808 1.804 1.804v79.055c0 8.403-3.436 16.044-8.972 21.58-5.537 5.535-13.176 8.972-21.58 8.972H1.79a1.804 1.804 0 01-1.804-1.804V64.155h3.609v43.691h84.438c7.407 0 14.143-3.032 19.027-7.916 4.885-4.885 7.917-11.62 7.917-19.028V3.652H-.015V1.846A1.806 1.806 0 011.79.043z"/><path d="M34.279 58.393c-.408 0-.783.018-1.156-.003-1.953-.11-3.443-1.43-3.79-3.355a3.562 3.562 0 01-.046-.61c-.002-2.694-.022-5.387.004-8.079.038-3.838 2.639-6.995 6.396-7.78a8.663 8.663 0 011.732-.16c3.92-.014 7.84-.007 11.762-.007h.426c-.395-.315-.731-.573-1.057-.843-2.085-1.724-3.81-3.74-4.934-6.22-.814-1.798-1.141-3.68-.476-5.59.93-2.672 2.916-4.169 5.656-4.587 2.524-.385 4.557.675 6.226 2.505 1.4 1.537 2.208 3.398 2.834 5.348.567 1.766.933 3.577 1.24 5.42.04-.34.08-.682.123-1.02.33-2.61.87-5.16 2.192-7.474 1.036-1.814 2.426-3.26 4.4-4.059 3.83-1.55 8.439.816 9.333 4.808.39 1.743.053 3.411-.703 4.99-1.142 2.387-2.803 4.377-4.814 6.083-.235.2-.474.392-.772.64h.417c3.996 0 7.992-.007 11.988.001 3.383.006 6.319 2.038 7.518 5.18a8.12 8.12 0 01.515 2.938c-.004 2.585.003 5.17-.003 7.755-.005 2.348-1.633 4.031-3.98 4.123-.321.013-.644.002-1.012.002v.437c0 6.505.004 13.011-.002 19.516-.003 2.852-1.858 5.236-4.593 5.89a6.7 6.7 0 01-1.535.167c-12.59.01-25.181.011-37.771.005-3.061-.002-5.471-2.004-6.024-4.986a6.73 6.73 0 01-.09-1.22c-.006-6.453-.004-12.904-.004-19.356zm3.998.05v19.795c.002 1.355.817 2.173 2.168 2.174h11.828V58.443zm28.03-.006v21.975h11.811c1.35 0 2.169-.822 2.169-2.175v-19.8zm18.96-4.058c.007-.108.018-.202.018-.297 0-2.54.004-5.08-.007-7.622a4.339 4.339 0 00-.124-1.053c-.465-1.82-2.034-3.003-3.978-3.005-4.846-.005-9.69-.002-14.535-.002h-.33v11.98zM52.273 42.4h-.292c-4.867.001-9.735-.004-14.602.002-2.364.004-4.088 1.74-4.093 4.108-.005 2.51-.001 5.018 0 7.527 0 .114.012.227.018.337h18.969zm10.654-4c.054 0 .11.007.161-.005a.877.877 0 00.21-.075c2.064-1.05 3.992-2.297 5.608-3.976 1.2-1.248 2.242-2.612 2.936-4.213.362-.832.528-1.702.405-2.614-.27-2.008-2.597-3.278-4.242-3.11-1.252.126-2.22.753-3.035 1.664-1.05 1.175-1.638 2.587-2.07 4.077-.54 1.871-.756 3.792-.902 5.725-.062.826-.133 1.651-.205 2.526zm-7.08-4.939c-.324-1.945-.818-3.848-1.667-5.64-.584-1.232-1.325-2.34-2.485-3.114-2.49-1.66-5.537.284-5.826 2.428a5.126 5.126 0 00.258 2.383c.546 1.577 1.514 2.89 2.624 4.103 1.738 1.9 3.86 3.276 6.111 4.483.54.29 1.07.32 1.696.276-.239-1.664-.44-3.297-.71-4.919z"/><path d="M55.295 80.386h7.968v-21.94h-7.968zm.005-26.021h7.962V42.411H55.3z"/></symbol><symbol viewBox="0 0 120 113" id="quick" xmlns="http://www.w3.org/2000/svg"><path d="M2.456.777h114.99c.996 0 1.804.808 1.804 1.804v79.055c0 8.404-3.436 16.044-8.972 21.579-5.537 5.537-13.176 8.974-21.58 8.974H2.457a1.804 1.804 0 01-1.804-1.805V64.889H4.26v43.691h84.438c7.407 0 14.143-3.032 19.027-7.916 4.884-4.885 7.917-11.621 7.917-19.028V4.385H.65V2.581c0-.996.808-1.804 1.805-1.804z"/><path d="M80.827 60.762c2.488 0 4.44 1.94 4.444 4.424 0 2.438-1.925 4.348-4.38 4.348-2.45 0-4.384-1.934-4.4-4.406-.008-1.111.46-2.226 1.286-3.057.822-.832 1.931-1.31 3.041-1.31zm1.89 4.386a1.77 1.77 0 00-.519-1.28 1.88 1.88 0 00-1.308-.55c-.446-.016-.92.179-1.273.524a1.83 1.83 0 00-.558 1.272c-.017.966.84 1.867 1.793 1.889.47.009.908-.18 1.265-.522.371-.358.59-.844.6-1.333z"/><path d="M92.14 39.95c.009.176.022.357.028.534l-.016 28.86a68.431 68.431 0 01-.063 1.565l-.004.081c-.024.48-.051.976-.348 1.448-.606.956-1.48 1.51-2.593 1.646-.333.038-.668.067-1.01.1l-.164.013c.002.103.002.2-.008.295l-.016.168c-.02.234-.043 1.92-.113 2.155-.151.524-.604.863-1.184.88-.014.002-.031.002-.045.002-.518 0-.916-.298-1.101-.818-.093-.263-.124-1.982-.153-2.248-.016-.156-.014-.3-.012-.446h-50.78c.003.127.006.244-.01.362l-.018.172c-.024.26-.048 1.971-.151 2.223a1.207 1.207 0 01-1.138.762c-.398 0-.762-.189-.99-.522-.134-.197-.223-.449-.278-.799-.038-.22-.046-1.89-.053-2.11-.002-.028-.002-.057-.002-.088l-.074-.007a15.969 15.969 0 00-.51-.032c-1.635-.066-2.776-.783-3.395-2.13-.107-.232-.203-.463-.203-.709-.005-9.644-.003-19.29.007-28.935 0-1.414.022-2.687.07-3.892.016-.47.064-.96.28-1.36.649-1.206 1.692-1.815 3.098-1.815h.008c3.388-.003 6.778-.008 10.164-.022 4.105-.016 8.21-.02 12.314-.02 4.68 0 9.36.004 14.039.008l6.282.007c5.109.003 10.22.008 15.333.015.172 0 .369.004.544.086 1.608.767 2.339 1.903 2.236 3.47-.022.36.002.72.029 1.1zM30.293 70.745a.81.81 0 00.789.788h57.743c.408 0 .78-.38.78-.798V38.634a.806.806 0 00-.787-.784H31.103a.804.804 0 00-.81.793z"/><path d="M67.54 53.514c-.025-1.68-.054-2.675-.081-3.708a340.73 340.73 0 01-.081-3.359c-.01-.595-.424-1.07-1.03-1.18a1.122 1.122 0 00-.902.228 1.125 1.125 0 00-.431.82l-.007.122c-.02.335-.041.668-.043 1.006-.01 1.12-.022 1.863-.034 2.524-.016 1.038-.031 1.874-.024 3.621.008 2.438.046 4.913.084 7.307l.033 2.191c.008.616.487 1.048 1.16 1.05h.015c.656 0 1.138-.415 1.174-1.012l.012-.155c.022-.317.04-.63.04-.947.006-2.126.006-4.252.006-6.378l-.003-1.88h.118zm8.171-4.946c-.841-.022-1.136-.286-1.254-1.125a8.973 8.973 0 01-.086-1.277c0-1.224.012-2.449.024-3.674l.015-1.129c.062-1.157.371-1.459 1.507-1.466 3.25-.027 6.497-.051 9.747-.062h.036c1.337 0 1.615.287 1.651 1.663.041 1.399.041 2.778.039 4.067a22.25 22.25 0 01-.089 1.869c-.074.793-.417 1.112-1.224 1.134-1.379.036-2.754.062-4.13.091l-1.076.021-.99-.019c-1.392-.029-2.78-.057-4.17-.093zm9.095-6.17h-7.849v3.658h7.849zm-3.986 7.909c2.515 0 4.427 1.89 4.45 4.4.013 1.118-.464 2.272-1.274 3.092-.812.822-1.884 1.258-3.096 1.261h-.01c-1.2 0-2.31-.448-3.127-1.266-.825-.82-1.278-1.943-1.275-3.154.002-2.343 1.979-4.328 4.318-4.333zm-1.212 5.666c.35.352.815.554 1.275.556h.005a1.81 1.81 0 001.265-.55c.36-.363.563-.847.56-1.329-.008-1.009-.823-1.8-1.854-1.8h-.005c-.968.002-1.792.841-1.797 1.831 0 .467.199.937.55 1.292z"/><path d="M32.553 65.126c-.024-7.688-.046-15.377-.048-23.067 0-.657.34-1.273.961-1.731a2.636 2.636 0 011.622-.544c4.645.014 9.297.014 13.939.012h4.048v.065H55.4c5.148-.002 10.283-.002 15.427.009.307 0 .594.158.738.252.721.474 1.09 1.146 1.097 1.996.01.707.022 1.414.034 2.121.019 1.158.038 2.315.041 3.475.005 3.238.007 6.479.007 9.716.002 3.241.002 6.478.007 9.719 0 .704-.283 1.308-.843 1.802a2.517 2.517 0 01-1.697.652c-5.529-.01-11.056-.01-16.585-.012l-9.95-.005c-2.383-.002-4.767-.026-7.152-.05l-.65-.008a13.681 13.681 0 01-1.526-.09c-.865-.108-1.352-.72-1.711-1.302-.082-.132-.08-.28-.08-.4zm2.543 1.865h35.053V42.392H35.096z"/></symbol><symbol viewBox="0 0 119 112" id="range" xmlns="http://www.w3.org/2000/svg"><path d="M1.8.05h114.992c.995 0 1.803.809 1.803 1.805V80.91c0 8.403-3.436 16.044-8.972 21.579-5.537 5.536-13.176 8.973-21.58 8.973H1.802a1.804 1.804 0 01-1.804-1.804V64.163h3.609v43.69h84.438c7.407 0 14.144-3.031 19.028-7.915 4.884-4.885 7.917-11.621 7.917-19.028V3.658H-.004V1.855A1.808 1.808 0 011.802.05z"/><path d="M44 33.184c-1.755 1.128-3.204 2.524-4.052 4.061-.394.772-.633 1.568-.531 2.316.053.372.15.732.328 1.077.202.37.43.738.714 1.1.526.742 1.205 1.467 1.797 2.325.583.846 1.09 1.87 1.117 2.934.016.263.013.524-.027.782a2.442 2.442 0 01-.22.822c-.238.5-.543.914-.887 1.303-.342.387-.698.755-1.092 1.093-.397.33-.785.693-1.288.906.68-.713 1.159-1.576 1.616-2.384.207-.412.414-.828.503-1.217.047-.21.052-.32.013-.552a3.192 3.192 0 00-.095-.609c-.377-1.596-1.856-2.829-3.127-4.502a9.436 9.436 0 01-.818-1.364 3.93 3.93 0 01-.396-1.63c-.03-1.119.404-2.17 1.05-3.024 1.302-1.706 3.255-2.908 5.396-3.437z"/><path d="M39.448 52.187a.499.499 0 01.05-.63c.612-.642 1.06-1.433 1.493-2.197.226-.445.423-.838.5-1.17a.704.704 0 00.007-.354 3.222 3.222 0 00-.087-.572c-.24-1.017-1.002-1.9-1.884-2.922a28.944 28.944 0 01-1.157-1.4 9.76 9.76 0 01-.866-1.445c-.29-.612-.445-1.248-.45-1.847-.037-1.445.608-2.61 1.154-3.33 1.343-1.763 3.358-3.05 5.673-3.621a.498.498 0 01.39.906c-1.767 1.135-3.11 2.477-3.885 3.882-.389.76-.55 1.44-.474 2.007.05.348.14.649.277.916.217.393.43.72.663 1.019.251.353.52.683.796 1.024.34.419.693.853 1.02 1.327.773 1.124 1.178 2.2 1.205 3.205.018.32.008.6-.033.87-.018.25-.113.675-.272.978-.224.47-.529.92-.954 1.402-.408.462-.772.825-1.144 1.142l-.163.138c-.35.297-.748.635-1.253.848a.499.499 0 01-.606-.176zm-.444-15.263c-.45.593-.98 1.544-.95 2.709.004.463.124.954.35 1.428.233.473.493.907.768 1.283.36.474.744.918 1.112 1.345.928 1.075 1.804 2.09 2.098 3.337.058.228.095.467.108.698a1.53 1.53 0 01-.024.688c-.058.25-.153.5-.262.746.191-.258.346-.51.471-.772.091-.176.158-.468.172-.645.035-.235.041-.451.027-.716-.022-.82-.368-1.717-1.03-2.678-.31-.451-.648-.865-.972-1.265a21.098 21.098 0 01-.82-1.055 8.332 8.332 0 01-.746-1.15 3.878 3.878 0 01-.384-1.245c-.107-.787.084-1.64.581-2.614a9.877 9.877 0 011.36-1.874 8.481 8.481 0 00-1.859 1.78zm16.772-17.037c-1.997 1.544-3.427 3.493-4.18 5.532-.344 1.024-.53 2.07-.382 3.077.08.504.19.987.4 1.472.201.499.467.987.748 1.475.547.988 1.248 1.97 1.813 3.076.557 1.101.985 2.332.981 3.572a5.75 5.75 0 01-.035.919 3.61 3.61 0 01-.198.951 7.745 7.745 0 01-.847 1.657 14.472 14.472 0 01-1.099 1.481c-.407.46-.793.96-1.342 1.306.405-.442.625-1.006.91-1.514.254-.526.51-1.049.72-1.58.2-.531.4-1.063.487-1.575a2.24 2.24 0 00.014-.75 5.288 5.288 0 00-.09-.795c-.335-2.115-1.82-3.867-3.11-6-.294-.545-.579-1.104-.799-1.692-.229-.596-.397-1.24-.425-1.877a7.12 7.12 0 01.806-3.656c.557-1.13 1.371-2.131 2.315-3.004.96-.856 2.058-1.613 3.313-2.075z"/><path d="M51.252 44.725a.498.498 0 01.014-.658c.25-.272.425-.618.612-.983.075-.147.15-.294.23-.436.25-.519.492-1.015.69-1.52.186-.49.38-1.002.46-1.476.04-.226.042-.371.012-.6a5.324 5.324 0 00-.085-.762c-.24-1.516-1.136-2.883-2.083-4.33-.32-.488-.647-.988-.964-1.511-.287-.531-.6-1.137-.839-1.775-.274-.711-.428-1.395-.457-2.03-.074-1.319.224-2.672.862-3.907.54-1.099 1.356-2.159 2.42-3.142 1.15-1.027 2.285-1.737 3.48-2.177.23-.088.49.011.61.227a.498.498 0 01-.132.637c-1.88 1.455-3.27 3.291-4.018 5.31-.359 1.072-.478 2.003-.355 2.831.086.549.198.965.363 1.346.2.495.466.976.723 1.425.234.422.493.838.755 1.261.363.582.738 1.185 1.071 1.836.7 1.387 1.04 2.63 1.035 3.802.014.31.001.646-.038.975-.027.36-.113.768-.228 1.072a8.324 8.324 0 01-.896 1.754 15.175 15.175 0 01-1.137 1.531l-.193.221c-.363.418-.738.85-1.262 1.181a.496.496 0 01-.65-.102zm-.656-19.538c-.559 1.085-.819 2.261-.755 3.407.024.532.156 1.11.393 1.726.218.583.5 1.129.772 1.633.297.491.62.981.932 1.459 1.01 1.539 1.961 2.994 2.231 4.701.054.264.082.554.096.847.04.291.036.536-.02.862a6.556 6.556 0 01-.272 1.007c.196-.348.355-.692.48-1.038a3.09 3.09 0 00.17-.818c.035-.3.045-.581.033-.86.003-1.02-.309-2.145-.927-3.369-.312-.611-.676-1.196-1.027-1.761a29.08 29.08 0 01-.778-1.298c-.27-.473-.556-.99-.774-1.529-.195-.451-.33-.942-.43-1.583-.146-.992-.014-2.075.402-3.314.34-.917.796-1.797 1.36-2.623-.814.807-1.449 1.665-1.886 2.551zm18.137 7.483c-1.756 1.127-3.205 2.523-4.053 4.06-.394.773-.633 1.569-.53 2.317.052.372.15.732.327 1.077.202.368.431.737.714 1.098.526.742 1.205 1.468 1.797 2.326.583.846 1.09 1.87 1.117 2.934.016.263.013.524-.027.782a2.442 2.442 0 01-.22.822c-.238.5-.543.915-.887 1.304-.342.386-.698.754-1.092 1.092-.397.33-.785.694-1.288.907.68-.714 1.16-1.577 1.616-2.385.207-.411.414-.827.503-1.216.047-.211.052-.321.013-.552a3.192 3.192 0 00-.095-.61c-.377-1.595-1.856-2.828-3.127-4.501a9.436 9.436 0 01-.818-1.365 3.93 3.93 0 01-.396-1.63c-.029-1.119.404-2.17 1.051-3.024 1.301-1.706 3.254-2.908 5.395-3.437z"/><path d="M64.18 51.672a.499.499 0 01.05-.629c.613-.644 1.06-1.434 1.494-2.198.226-.445.423-.837.499-1.17a.7.7 0 00.007-.357 3.131 3.131 0 00-.086-.569c-.24-1.017-1.002-1.9-1.884-2.922a28.944 28.944 0 01-1.157-1.4 9.92 9.92 0 01-.867-1.445 4.452 4.452 0 01-.45-1.847c-.028-1.142.372-2.297 1.155-3.33 1.343-1.764 3.357-3.049 5.673-3.62a.498.498 0 01.389.905c-1.767 1.135-3.11 2.477-3.884 3.882-.39.761-.551 1.441-.474 2.007.05.347.14.648.277.916.217.393.429.721.663 1.02.25.352.52.682.796 1.023.34.42.693.853 1.02 1.327.773 1.123 1.178 2.201 1.205 3.204.017.316.008.606-.033.871a2.849 2.849 0 01-.271.978c-.225.47-.53.921-.955 1.402-.408.462-.772.825-1.144 1.142L66.04 51c-.35.297-.748.635-1.253.848a.499.499 0 01-.606-.176zm-.443-15.264c-.45.593-.98 1.546-.95 2.71.004.463.124.954.349 1.428.234.473.495.908.769 1.283.36.474.744.918 1.112 1.345.928 1.075 1.804 2.09 2.098 3.337.059.232.095.463.108.697.042.235.038.41-.024.69-.058.25-.153.5-.262.745.19-.258.346-.51.47-.772a1.97 1.97 0 00.173-.645c.035-.235.04-.452.027-.717-.022-.82-.368-1.716-1.03-2.677-.311-.45-.648-.865-.972-1.265a21.098 21.098 0 01-.821-1.055 8.332 8.332 0 01-.745-1.149 3.85 3.85 0 01-.384-1.247c-.107-.786.084-1.639.58-2.613a9.882 9.882 0 011.36-1.875 8.504 8.504 0 00-1.858 1.78zm18.996 48.897H23.742c-1.456 0-2.647-1.092-2.647-2.43 0-1.336 1.19-2.428 2.647-2.428h58.99c1.456 0 2.65 1.092 2.65 2.428 0 1.338-1.194 2.43-2.65 2.43zM56.325 51.903a25.297 25.297 0 00-3.153-.205c-1.02 0-2.027.07-3.018.19a3.091 3.091 0 013.082-2.93 3.097 3.097 0 013.089 2.945zM26.115 78.3c1.097-14.025 12.816-25.069 27.12-25.069 14.31 0 26.03 11.044 27.126 25.07zm4.275-2.535h5.747s3.182-14.04 13.998-20.15c0 0-15.21 3.32-19.745 20.15z"/></symbol><symbol viewBox="0 0 119 112" id="reliable" xmlns="http://www.w3.org/2000/svg"><path d="M1.79.043h114.99c.996 0 1.804.808 1.804 1.804v79.055c0 8.403-3.436 16.044-8.972 21.58-5.537 5.535-13.176 8.972-21.58 8.972H1.79a1.804 1.804 0 01-1.804-1.804V64.155h3.609v43.691h84.438c7.407 0 14.143-3.032 19.027-7.916 4.885-4.885 7.917-11.62 7.917-19.028V3.652H-.015V1.846A1.806 1.806 0 011.79.043z"/><path d="M23.784 57.753c0-.737.173-1.006.861-1.298 4.761-2.024 9.521-4.05 14.288-6.059.363-.153.46-.34.46-.719-.01-5.97-.004-11.942-.002-17.913.001-1 .131-1.19 1.041-1.577 4.897-2.078 9.797-4.148 14.685-6.247.645-.277 1.196-.294 1.849-.013 4.916 2.115 9.846 4.2 14.772 6.292.817.347.974.576.974 1.475-.001 5.955.003 11.91-.018 17.864-.002.486.152.705.591.89 4.694 1.975 9.375 3.982 14.069 5.956.676.284.973.698.971 1.437a5303.8 5303.8 0 00-.006 19.13c.001.596-.248.97-.788 1.207a5285.074 5285.074 0 00-15.238 6.686c-.474.21-.891.173-1.349-.029-4.645-2.048-9.301-4.07-13.935-6.142-.68-.304-1.225-.32-1.91-.014-4.634 2.07-9.291 4.091-13.933 6.145-.5.221-.937.233-1.438.012-5-2.208-10.004-4.407-15.015-6.59-.672-.293-.948-.723-.941-1.46.026-3.148.011-6.296.012-9.444v-9.589zm33.314 1.836c-.002 5.5 0 10.998-.012 16.497 0 .326.15.442.414.557 3.937 1.721 7.869 3.452 11.803 5.18.409.18.821.351 1.274.545.014-.204.031-.33.031-.456.002-5.353-.002-10.706.009-16.058.001-.35-.133-.51-.438-.65-2.99-1.376-5.973-2.768-8.958-4.152-1.336-.62-2.675-1.234-4.084-1.883-.019.201-.038.311-.039.42zm-31.201 0c-.003 5.5-.002 11-.014 16.5-.001.325.152.447.413.561 4.204 1.84 8.406 3.686 12.609 5.53.138.06.282.104.457.168.014-.169.028-.264.028-.36.001-5.387-.002-10.773.007-16.16 0-.33-.123-.482-.412-.616-4.035-1.86-8.065-3.735-12.097-5.605-.303-.14-.614-.266-.956-.413-.016.173-.035.283-.035.394zm29.109-4.217c0-5.223-.004-10.446.007-15.669.001-.362-.116-.546-.445-.697-4.227-1.945-8.448-3.904-12.672-5.857-.111-.052-.233-.079-.38-.127-.011.176-.025.304-.025.431-.001 5.418.002 10.836-.01 16.254-.001.371.13.538.458.676 4.062 1.715 8.119 3.444 12.179 5.168.263.112.531.214.888.358zm-9.43 8.202c-.151.038-.231.046-.3.078-1.178.543-2.36 1.077-3.523 1.65-.14.07-.246.356-.247.543-.013 5.335-.011 10.672-.009 16.008.001.151.022.302.038.508.286-.12.509-.21.729-.307 4.067-1.786 8.131-3.579 12.205-5.35.404-.176.543-.383.541-.827-.015-5.4-.007-10.802-.007-16.203 0-.15-.021-.303-.037-.514-1.19.552-2.31 1.062-3.417 1.6-.117.056-.211.27-.221.418-.029.468-.014.94-.014 1.41.001 1.85.01 3.698.001 5.547-.005 1.003-.707 1.508-1.666 1.22-.125-.037-.253-.068-.368-.125-.345-.17-.594-.116-.817.225-.212.323-.484.608-.74.902-.436.5-.909.637-1.425.428-.503-.202-.726-.587-.726-1.249l.003-5.4zm37.401-2.94c-.343.15-.477.337-.474.727.02 2.27.014 4.541.007 6.812-.003.89-.684 1.538-1.438 1.206-.97-.427-1.453-.006-1.91.71-.043.068-.101.127-.153.19-.458.544-.914.712-1.443.53-.537-.185-.801-.63-.8-1.358l.002-5.303v-.596c-.235.095-.399.152-.555.225-1.031.477-2.053.971-3.092 1.427-.318.14-.417.314-.416.657.012 5.304.008 10.608.008 15.911v.595c.273-.11.466-.184.655-.267 4.112-1.805 8.222-3.616 12.34-5.406.391-.17.508-.382.507-.799-.014-4.59-.006-9.18-.004-13.77V59.15c-1.148.53-2.184 1.023-3.234 1.484zM67.106 34.598c-.105.051-.181.257-.187.395-.022.47-.006.94-.006 1.411.002 1.85.01 3.7-.001 5.55-.005.917-.698 1.57-1.467 1.235-.925-.404-1.403-.04-1.845.662-.051.082-.122.151-.185.226-.471.564-.944.737-1.481.542-.512-.187-.763-.618-.763-1.33 0-1.769.003-3.537.005-5.306v-.62c-.19.07-.295.101-.394.147-1.075.497-2.142 1.01-3.226 1.487-.349.153-.468.348-.467.732.014 5.208.009 10.417.01 15.625 0 .156.016.311.028.535.333-.132.617-.238.895-.356 4.031-1.71 8.059-3.429 12.096-5.126.369-.156.497-.34.495-.745-.013-4.949-.006-9.898-.004-14.846V32.96c-1.249.58-2.382 1.096-3.503 1.638zM27.711 57.68c4.149 1.924 8.298 3.85 12.453 5.761.163.074.419.061.588-.013.994-.436 1.977-.9 2.962-1.362.089-.04.161-.119.264-.198-.102-.06-.155-.097-.213-.123-3.872-1.75-7.758-3.47-11.607-5.268-.819-.383-1.485-.407-2.266.001-.754.394-1.563.686-2.398 1.045.115.084.161.131.217.157zm15.768-26.106c4.091 1.896 8.181 3.794 12.278 5.675.173.08.445.061.625-.018.967-.42 1.92-.873 2.875-1.318.107-.05.202-.126.341-.215-.119-.073-.182-.122-.252-.154-4.14-1.869-8.279-3.736-12.42-5.599-.112-.05-.268-.105-.367-.065-1.136.464-2.266.946-3.5 1.466.224.122.319.181.42.228zm31.32 30.094c-3.44-1.557-6.88-3.114-10.322-4.667-.649-.292-1.307-.792-1.958-.789-.672.003-1.344.5-2.013.787-.479.207-.953.426-1.513.678.227.124.347.2.476.258 3.557 1.651 7.137 3.257 10.661 4.976 1.071.522 1.967.67 3.001.006.629-.403 1.359-.65 2.133-1.008-.22-.115-.339-.184-.465-.24zM53.386 27.334c4.012 1.78 8.024 3.564 12.045 5.325.229.101.574.092.81-.003.779-.316 1.535-.693 2.297-1.05.134-.063.26-.145.43-.24-.119-.074-.17-.115-.227-.139a9649.086 9649.086 0 00-12.435-5.279c-.112-.047-.267-.095-.367-.054-.952.39-1.897.797-2.925 1.234.186.104.275.163.372.206zm30.842 30.02c-4.055-1.725-8.11-3.447-12.168-5.165-.127-.054-.302-.118-.411-.073-.948.4-1.886.821-2.889 1.264.134.082.196.13.266.161 4.043 1.792 8.086 3.585 12.132 5.37.135.06.334.1.456.046.988-.439 1.966-.904 3.013-1.39-.178-.097-.284-.166-.399-.214zm-31.726.04c-3.727-1.636-7.462-3.254-11.174-4.924-.69-.31-1.265-.399-1.947-.014-.595.336-1.257.553-1.975.86.203.112.307.181.42.231 4.032 1.788 8.064 3.575 12.101 5.353.148.065.363.105.499.046.872-.382 1.731-.796 2.717-1.257-.292-.134-.465-.217-.641-.295zm-5.391 2.56c-3.927-1.74-7.86-3.465-11.772-5.236-.594-.269-1.029-.186-1.551.2.236.115.432.216.632.307 3.84 1.735 7.69 3.45 11.512 5.221.663.307 1.119.133 1.692-.252-.204-.096-.358-.17-.513-.24zm2.531-31.086c3.973 1.791 7.956 3.56 11.907 5.395.679.315 1.112.101 1.694-.25-.277-.129-.49-.232-.706-.327-3.865-1.713-7.738-3.41-11.59-5.153-.593-.268-1.033-.165-1.575.188.129.071.198.114.27.147zm15.967 26.346c3.867 1.747 7.744 3.473 11.597 5.254.656.303 1.082.086 1.612-.27-.178-.09-.304-.159-.435-.217-3.909-1.733-7.826-3.45-11.721-5.214-.578-.26-.966-.089-1.47.216.175.098.291.174.417.231zm14.793 6.64c-.267.122-.448.24-.646.288-.739.183-.943.628-.894 1.377.075 1.155.019 2.318.019 3.394h1.521zm-31.235 5.062V61.86c-.474.221-.915.412-1.339.633-.087.046-.163.205-.163.312-.011 1.39-.007 2.78-.007 4.111zm15.597-26.194V35.68c-.483.223-.909.41-1.323.621-.077.04-.149.176-.15.268-.009 1.404-.006 2.81-.006 4.153z"/></symbol><symbol viewBox="0 0 18 17" id="search" xmlns="http://www.w3.org/2000/svg"><path d="M12.33 6.49a5.38 5.38 0 11-10.759 0 5.38 5.38 0 0110.759 0zm-1.317 3.519l6.103 6.102"/></symbol><symbol viewBox="0 0 11 29" id="spoon" xmlns="http://www.w3.org/2000/svg"><path d="M6.702 12.687c.11 1.15.228 2.3.33 3.452.07.788.114 1.578.18 2.367.158 1.934.34 3.866.478 5.8.066.922-.025 1.843-.368 2.727-.14.363-.336.722-.579 1.043-.48.634-1.393.65-1.942.058-.448-.481-.635-1.048-.794-1.634-.225-.83-.255-1.664-.218-2.503.028-.645.114-1.287.173-1.931l.168-1.908c.124-1.385.251-2.769.373-4.153.035-.395.058-.79.09-1.185.055-.742.112-1.483.175-2.224.011-.13-.013-.21-.187-.249-.877-.197-1.57-.634-2.179-1.179C1.448 10.31.912 9.275.656 8.146.46 7.281.46 6.403.61 5.52a7.93 7.93 0 011.491-3.486C2.713 1.225 3.48.524 4.573.162c1.06-.349 2.081-.226 3.032.302 1.173.651 1.918 1.585 2.45 2.64.306.612.587 1.248.74 1.896.232 1.005.29 2.022.052 3.05-.246 1.054-.687 2.021-1.49 2.864-.575.601-1.244 1.1-2.149 1.334-.164.042-.318.108-.507.174 0 .088-.008.176.001.264zm3.341-7.865c-.23-.823-.582-1.618-1.124-2.34-.475-.632-1.014-1.22-1.81-1.603C6.345.509 5.557.422 4.731.732c-.765.287-1.34.76-1.812 1.319A7.317 7.317 0 001.324 5.4c-.205 1.032-.19 2.05.126 3.066.316 1.012.882 1.902 1.814 2.616a3.982 3.982 0 002.424.857c1.151.014 2.1-.413 2.855-1.105 1.28-1.172 1.728-2.606 1.806-4.356-.075-.42-.136-1.05-.306-1.658zm-4.639 8.497c-.064.78-.116 1.562-.186 2.342-.106 1.167-.229 2.333-.332 3.499-.107 1.208-.198 2.418-.299 3.626-.109 1.289-.239 2.582.171 3.852.116.36.278.72.497 1.043.29.429.677.41.997-.005.02-.027.035-.057.055-.084.37-.49.5-1.045.61-1.598.241-1.223.057-2.45-.044-3.672-.05-.612-.13-1.222-.179-1.834-.088-1.12-.15-2.24-.245-3.358-.117-1.393-.259-2.785-.384-4.18-.038-.424-.029-.424-.57-.46-.03.285-.068.557-.09.829z"/><path d="M2.799 6.686c.072-1.521.589-2.806 1.708-3.902.042-.041.167-.068.222-.046.133.053.084.137.014.223-.298.369-.641.72-.868 1.119-.253.444-.42.926-.582 1.4-.206.602-.192 1.229-.087 1.834.093.53.336 1.042.525 1.559.035.097.11.184-.036.249-.16.07-.216-.051-.256-.13-.265-.516-.477-1.046-.535-1.611-.027-.264-.08-.526-.105-.695z"/><path d="M3.512 9.27c-.136-.04-.193-.15-.226-.218-.33-.642-.5-1.153-.55-1.66a8.46 8.46 0 00-.077-.522l-.03-.178V6.68c.077-1.607.65-2.912 1.749-3.989.083-.08.29-.135.425-.08.11.044.154.11.17.157.037.115-.048.221-.09.271a9.307 9.307 0 01-.26.311c-.224.265-.438.515-.594.79-.25.438-.413.916-.573 1.38-.174.508-.201 1.088-.082 1.773.066.377.216.76.36 1.126.054.138.108.275.159.412l.018.043c.032.072.116.261-.136.372a.4.4 0 01-.167.038.32.32 0 01-.096-.014zm.012-.475c-.036-.096-.074-.19-.112-.287-.101-.259-.205-.523-.284-.793.073.332.2.68.396 1.08zm-.31-3.6a8.43 8.43 0 01.387-.949 5.361 5.361 0 00-.386.95zm.756-1.547c.119-.159.25-.312.378-.462l.126-.149a5.426 5.426 0 00-.504.611z"/></symbol><symbol viewBox="0 0 120 113" id="taste" xmlns="http://www.w3.org/2000/svg"><path d="M2.671.777h114.991c.995 0 1.802.808 1.802 1.804v79.055c0 8.404-3.435 16.044-8.972 21.579-5.536 5.537-13.175 8.974-21.578 8.974H2.671a1.804 1.804 0 01-1.804-1.805V64.889h3.608v43.691h84.44c7.405 0 14.142-3.032 19.026-7.916 4.884-4.885 7.917-11.621 7.917-19.028V4.385H.867V2.581c0-.996.807-1.804 1.804-1.804z"/><path d="M49.787 30.265c.025-1.115-.048-2.243.102-3.341.352-2.595 2.691-4.614 5.307-4.723 1.482-.061 2.862.225 4.055 1.149 1.493 1.156 2.244 2.693 2.263 4.582.008.951.013 1.902-.005 2.852-.005.273.079.375.343.442 4.919 1.248 9.11 3.738 12.543 7.469 3.62 3.933 5.795 8.562 6.535 13.863.269 1.924.236 3.858.237 5.791.002 7.085-.022 14.17.018 21.254.01 1.559-.619 2.668-1.85 3.514-1.318.907-2.801 1.444-4.321 1.889-2.432.713-4.92 1.148-7.431 1.47-4.624.592-9.268.782-13.925.699-3.55-.064-7.089-.29-10.605-.785-3.064-.432-6.103-.988-8.992-2.159-1.049-.426-2.045-.947-2.867-1.748-.717-.698-1.074-1.533-1.073-2.546.01-7.958-.003-15.916.007-23.874.014-10.71 6.504-20.133 16.503-23.954 1.018-.388 2.073-.679 3.155-1.03 0-.243-.005-.529.001-.814zM33.532 76.309c.679-.263 1.348-.556 2.038-.785 2.175-.723 4.423-1.131 6.681-1.487.947-.15 1.77.373 1.915 1.243.15.905-.444 1.657-1.398 1.839-1.657.316-3.318.626-4.962 1.004-1.324.305-2.612.746-3.793 1.442-.261.154-.493.357-.795.579.273.215.466.424.705.542.72.356 1.438.734 2.194 1 2.352.83 4.798 1.258 7.26 1.61 3.396.484 6.813.708 10.239.772 4.457.083 8.904-.084 13.332-.643 2.511-.316 5.001-.737 7.429-1.468 1.08-.326 2.143-.698 3.091-1.331.195-.131.367-.297.629-.512-.46-.294-.83-.575-1.237-.782-1.578-.799-3.277-1.246-4.996-1.61-1.122-.238-2.258-.414-3.389-.611-.918-.16-1.508-.96-1.347-1.845.153-.846.974-1.391 1.861-1.24.609.105 1.221.196 1.829.308 2.414.445 4.803.979 7.045 2.022.047.022.101.029.191.054V56.068a22.93 22.93 0 00-.474-4.674C74.983 38.945 62.5 31.142 50.167 34.255c-9.857 2.489-16.846 11.33-16.918 21.488-.047 6.797-.01 13.595-.011 20.391 0 .078.007.154.013.28.122-.045.202-.074.281-.105zm24.857-45.783c.003-.018.018-.07.018-.123.001-.84.005-1.68-.004-2.52a2.505 2.505 0 00-.426-1.406c-.613-.907-1.495-1.204-2.551-1.164-1.424.053-2.523 1.162-2.524 2.586 0 .718.003 1.437.004 2.155v.472z"/><path d="M55.594 52.159c3.348-3.545 7.457-5.663 12.271-6.417.404-.063.81-.109 1.216-.149.773-.076 1.37.282 1.69 1.008a20.835 20.835 0 011.573 5.49c.57 3.976.132 7.844-1.534 11.503-3.098 6.805-8.328 11.002-15.686 12.447-.838.165-1.389.448-1.74 1.23-.28.621-.675 1.19-1.028 1.777-.493.823-1.418 1.079-2.193.617-.756-.452-.966-1.378-.49-2.198.492-.85 1-1.692 1.484-2.548.07-.124.108-.324.059-.451a21.93 21.93 0 01-1.305-5.393c-.03-.275-.135-.378-.393-.456-4.942-1.497-8.3-4.676-10.019-9.548-.665-1.886-.894-3.847-.723-5.843.071-.819.5-1.291 1.295-1.471 4.815-1.088 9.152-.091 13.005 2.998l.207.169c.781-.94 1.495-1.901 2.311-2.765zM56.8 72.467c9.724-3.068 15.02-13.706 11.62-23.321-.098-.28-.23-.315-.481-.269-3.022.551-5.794 1.701-8.16 3.667-5.248 4.362-7.472 9.969-6.7 16.753.064.572.2 1.135.32 1.795.117-.182.178-.27.23-.362 1.572-2.677 3.142-5.354 4.712-8.032.598-1.019 1.188-2.044 1.799-3.055a1.532 1.532 0 011.898-.657c.69.262 1.096.945.965 1.697-.044.253-.165.504-.296.728-2.104 3.594-4.214 7.183-6.322 10.774-.076.129-.146.261-.26.465.279-.075.479-.122.675-.183zm-7.005-7.045c.01-.042.023-.084.027-.126a20.927 20.927 0 011.873-7.334c.091-.2-.01-.277-.125-.384a11.483 11.483 0 00-4.9-2.722c-1.573-.423-3.169-.529-4.78-.268-.586 3.953 3.991 10.221 7.905 10.834zM39.508 46.119c.144-.313.233-.67.441-.932a25.06 25.06 0 015.39-5.06c.731-.51 1.67-.366 2.18.324.514.693.396 1.655-.332 2.173a24.916 24.916 0 00-4.87 4.556c-.447.544-1.112.685-1.74.442a1.526 1.526 0 01-.989-1.466l-.08-.037z"/></symbol><symbol viewBox="0 0 120 113" id="time" xmlns="http://www.w3.org/2000/svg"><path d="M2.456.777h114.99c.996 0 1.804.808 1.804 1.804v79.055c0 8.404-3.436 16.044-8.972 21.579-5.537 5.537-13.176 8.974-21.58 8.974H2.457a1.804 1.804 0 01-1.804-1.805V64.889H4.26v43.691h84.438c7.407 0 14.143-3.032 19.027-7.916 4.884-4.885 7.917-11.621 7.917-19.028V4.385H.65V2.581c0-.996.808-1.804 1.805-1.804z"/><path d="M59.174 26.076c.557.045 1.114.085 1.67.135 6.86.623 12.87 3.214 17.99 7.824 2.85 2.566 5.085 5.604 6.777 9.043.042.085.087.169.153.296.321-.098.646-.195.97-.298.67-.211 1.337-.428 2.007-.64.366-.115.762-.271 1.075.055.317.329.137.717-.006 1.072-1.01 2.493-2.018 4.987-3.034 7.478-.425 1.039-1.306 1.312-2.256.707-2.26-1.44-4.52-2.881-6.78-4.325-.323-.206-.694-.416-.633-.868.06-.451.473-.552.84-.67.906-.29 1.813-.577 2.721-.868.111-.035.218-.083.35-.133-.038-.09-.063-.166-.1-.235-3.9-7.173-9.84-11.69-17.855-13.175-8.904-1.65-16.63.929-23.026 7.304-3.644 3.632-5.904 8.086-6.739 13.155-1.545 9.367 1.266 17.316 8.264 23.703 3.778 3.448 8.325 5.402 13.391 6.103 5.231.722 10.197-.184 14.922-2.515 1.045-.515 2.098-1.02 3.261-1.24 1.79-.335 2.663.86 2.887 2.099.115.64-.245 1.143-.733 1.499-.74.539-1.486 1.086-2.289 1.518-3.472 1.872-7.162 3.094-11.089 3.554-.78.092-1.568.12-2.352.18-.153.012-.305.037-.457.056h-1.43c-.166-.02-.33-.04-.495-.058-1.536-.177-3.094-.245-4.606-.55-7-1.408-12.877-4.786-17.474-10.277-3.9-4.658-6.195-10.032-6.91-16.071-.08-.672-.139-1.346-.208-2.02v-2.79c.021-.116.053-.232.06-.35.15-2.762.69-5.448 1.582-8.065C33.55 35.196 43.793 27.213 55.93 26.206c.556-.046 1.114-.087 1.67-.13z"/><path d="M60.733 48.42c0 3.16-.002 6.318.005 9.478a.648.648 0 01-.27.57c-4.32 3.51-8.635 7.025-12.945 10.548-.631.516-1.31.73-2.09.447-1.447-.523-1.754-2.394-.547-3.394 1.615-1.338 3.247-2.657 4.873-3.983 2.254-1.838 4.505-3.679 6.767-5.507.219-.178.254-.368.254-.617-.004-5.616-.004-11.23 0-16.847 0-.284.01-.578.083-.85.246-.919 1.14-1.529 2.052-1.43 1.019.111 1.735.856 1.812 1.891.009.13.006.262.006.393zm25.856 19.108a2.142 2.142 0 11-4.285.002 2.142 2.142 0 014.285-.002z"/><path d="M84.333 66.307a.432.432 0 01-.432-.432v-7.11a.432.432 0 01.863 0v7.11a.431.431 0 01-.431.432z"/><path d="M84.333 59.197a.431.431 0 01-.336-.16l-1.858-2.304a.433.433 0 01.065-.607.433.433 0 01.607.065l1.857 2.303a.432.432 0 01-.335.703zm0 5.75a.433.433 0 01-.336-.16l-1.858-2.304a.432.432 0 01.672-.541l1.857 2.303a.43.43 0 01-.335.702zm0-2.877a.43.43 0 01-.33-.151l-3.26-3.831a.432.432 0 01.657-.56l3.26 3.832a.43.43 0 01-.327.71z"/><path d="M84.332 59.197a.432.432 0 01-.335-.703l1.857-2.303a.432.432 0 01.672.542l-1.858 2.303a.43.43 0 01-.336.161zm0 5.75a.43.43 0 01-.335-.702l1.857-2.303a.431.431 0 11.672.54l-1.858 2.305a.432.432 0 01-.336.16zm0-2.877a.432.432 0 01-.328-.711l3.261-3.83a.432.432 0 01.657.559l-3.26 3.83a.428.428 0 01-.33.153zm.001-5.507a.43.43 0 01-.305-.126l-.534-.534a.432.432 0 010-.61l.534-.534a.43.43 0 01.61 0l.534.533a.433.433 0 010 .611l-.534.534a.43.43 0 01-.305.126zm0 20.132a.432.432 0 01-.432-.43v-7.11a.432.432 0 01.863 0v7.11a.431.431 0 01-.431.43z"/><path d="M86.19 79a.432.432 0 01-.335-.162l-1.858-2.303a.433.433 0 01.672-.542l1.857 2.304a.432.432 0 01-.335.702zm0-5.75a.432.432 0 01-.335-.162l-1.858-2.303a.432.432 0 01.672-.542l1.857 2.304a.432.432 0 01-.335.702zm1.404 4.403a.429.429 0 01-.328-.151l-3.261-3.832a.431.431 0 11.656-.559l3.262 3.831a.432.432 0 01-.33.711z"/><path d="M82.475 79a.432.432 0 01-.335-.702l1.857-2.305a.432.432 0 01.672.542l-1.858 2.303a.431.431 0 01-.337.161zm0-5.75a.432.432 0 01-.335-.702l1.857-2.305a.432.432 0 01.672.542l-1.858 2.303a.431.431 0 01-.337.161zm-1.403 4.403a.432.432 0 01-.329-.711l3.262-3.831a.431.431 0 11.656.559L81.4 77.502a.429.429 0 01-.328.151zm3.261 2.745a.43.43 0 01-.305-.126l-.534-.534a.431.431 0 010-.61l.534-.534a.444.444 0 01.61 0l.534.534a.43.43 0 010 .61l-.534.534a.43.43 0 01-.305.126zm1.416-13.278a.432.432 0 01-.218-.804l6.14-3.585a.432.432 0 01.435.745l-6.14 3.585a.43.43 0 01-.217.059z"/><path d="M91.888 63.535a.43.43 0 01-.403-.585l1.052-2.766a.432.432 0 01.807.307l-1.053 2.766a.43.43 0 01-.403.278zm-4.965 2.899a.43.43 0 01-.403-.585l1.052-2.766a.432.432 0 01.807.307l-1.053 2.766a.43.43 0 01-.403.278zm2.484-1.45A.432.432 0 0189 64.41l1.664-4.748a.432.432 0 01.814.285l-1.664 4.748a.431.431 0 01-.407.289z"/><path d="M94.815 63.978a.363.363 0 01-.065-.005l-2.926-.443a.431.431 0 01.129-.853l2.926.443a.43.43 0 01-.064.858zm-4.965 2.899a.363.363 0 01-.065-.005l-2.926-.443a.431.431 0 11.129-.853l2.926.443a.431.431 0 01-.064.858zm4.51-1.009a.398.398 0 01-.076-.007l-4.953-.884a.432.432 0 01.152-.849l4.953.884a.431.431 0 01-.076.856zm.533-3.469a.454.454 0 01-.11-.014l-.73-.193a.43.43 0 01-.308-.526l.192-.73a.43.43 0 01.527-.308l.73.192c.231.06.368.296.308.527l-.192.73a.43.43 0 01-.417.322zm-18.115 9.96a.432.432 0 01-.218-.804l6.14-3.586a.43.43 0 11.435.745l-6.14 3.586a.43.43 0 01-.217.059z"/><path d="M75.725 75.124a.43.43 0 01-.403-.584l1.051-2.767a.431.431 0 11.807.307l-1.052 2.766a.43.43 0 01-.403.278zm4.965-2.899a.43.43 0 01-.403-.585l1.053-2.766a.43.43 0 11.806.307l-1.053 2.766a.43.43 0 01-.403.278zm-3.095 3.432a.432.432 0 01-.407-.574l1.664-4.748a.431.431 0 01.814.285l-1.664 4.748a.431.431 0 01-.407.289z"/><path d="M76.778 72.358a.363.363 0 01-.065-.005l-2.926-.443a.432.432 0 01.129-.853l2.926.444a.431.431 0 01-.064.857zm4.965-2.899a.363.363 0 01-.065-.005l-2.926-.443a.43.43 0 11.129-.853l2.926.444a.43.43 0 01-.064.857zM79.26 70.91a.408.408 0 01-.077-.008l-4.953-.884a.431.431 0 01.152-.849l4.953.884a.43.43 0 01-.075.856zm-4.95 3.507a.42.42 0 01-.11-.014l-.73-.192a.43.43 0 01-.306-.526l.19-.731a.432.432 0 01.528-.308l.73.192a.43.43 0 01.308.527l-.192.73a.432.432 0 01-.417.322zm17.682-2.242a.425.425 0 01-.208-.054l-6.224-3.436a.432.432 0 01.417-.756l6.224 3.437a.432.432 0 01-.21.81z"/><path d="M91.992 72.175a.43.43 0 01-.074-.856l2.914-.513a.431.431 0 11.15.85l-2.915.512a.38.38 0 01-.075.007zm-5.034-2.779a.43.43 0 01-.074-.856l2.914-.513a.431.431 0 11.15.85l-2.915.513a.474.474 0 01-.075.006zm2.518 1.39a.43.43 0 01-.086-.854l4.931-1.003a.432.432 0 01.172.845l-4.931 1.003a.426.426 0 01-.086.01z"/><path d="M93.11 74.916a.43.43 0 01-.398-.27l-1.12-2.74a.431.431 0 11.8-.324l1.118 2.74a.432.432 0 01-.4.594zm-5.033-2.78a.43.43 0 01-.399-.269l-1.119-2.739a.432.432 0 01.799-.326l1.118 2.74a.431.431 0 01-.399.594zm3.177 3.357a.433.433 0 01-.404-.279l-1.778-4.707a.432.432 0 01.807-.305l1.778 4.707a.431.431 0 01-.403.584zm3.253-1.319a.43.43 0 01-.415-.312l-.209-.725a.431.431 0 01.295-.534l.725-.21a.435.435 0 01.535.295l.21.726a.431.431 0 01-.296.534l-.725.209a.41.41 0 01-.12.017zm-11.61-7.02a.425.425 0 01-.208-.054l-6.224-3.436a.431.431 0 11.417-.755l6.224 3.436a.432.432 0 01-.21.809z"/><path d="M73.758 64.23a.43.43 0 01-.074-.856l2.914-.512a.43.43 0 11.15.849l-2.915.513a.38.38 0 01-.075.007zm5.034 2.78a.43.43 0 01-.075-.856l2.915-.513a.43.43 0 11.15.849l-2.915.513a.388.388 0 01-.075.007zm-4.533-.9a.43.43 0 01-.086-.855l4.93-1.002a.43.43 0 11.172.845l-4.93 1.002a.426.426 0 01-.086.01z"/><path d="M76.673 63.717a.43.43 0 01-.399-.268l-1.119-2.74a.432.432 0 01.8-.326l1.117 2.74a.43.43 0 01-.399.594zm5.034 2.78a.43.43 0 01-.4-.268l-1.118-2.74a.432.432 0 01.799-.326l1.118 2.74a.43.43 0 01-.4.594zm-2.517-1.39a.433.433 0 01-.405-.28l-1.778-4.706a.432.432 0 01.807-.305l1.778 4.707a.431.431 0 01-.403.584zm-5.548-2.453a.433.433 0 01-.415-.312l-.209-.726a.432.432 0 01.295-.534l.725-.21a.432.432 0 01.535.296l.209.725a.43.43 0 01-.295.534l-.725.21a.457.457 0 01-.12.017z"/></symbol><symbol viewBox="0 0 25 25" id="user" xmlns="http://www.w3.org/2000/svg"><path d="M.684 22.194c.018-.186.034-.372.055-.557a8.472 8.472 0 011.652-4.125c.98-1.32 2.236-2.316 3.675-3.092.268-.145.543-.276.82-.416-.014-.028-.024-.055-.037-.079a9.156 9.156 0 01-1.253-3.67c-.157-1.278-.086-2.54.278-3.778.517-1.754 1.442-3.249 2.913-4.353 2.046-1.536 4.279-1.84 6.637-.816 1.66.72 2.829 1.98 3.633 3.584.77 1.54 1.043 3.177.914 4.888a9.337 9.337 0 01-1.17 3.925c-.055.098-.113.196-.173.3.048.024.088.044.126.065.427.238.865.457 1.278.716 1.438.901 2.65 2.032 3.522 3.502.585.988.97 2.048 1.06 3.196.049.632.037 1.27.035 1.906 0 .363-.14.683-.383.954-.337.378-.765.526-1.266.526-6.888-.004-13.774-.003-20.662-.003-.057 0-.114.001-.171-.003-.54-.029-.965-.269-1.242-.729-.113-.187-.162-.412-.241-.619zm21.729.43a5.5 5.5 0 00-.162-1.356c-.297-1.208-.921-2.229-1.784-3.11-.977-1-2.142-1.708-3.44-2.21-.088-.035-.15-.033-.226.031-.957.797-2.047 1.291-3.291 1.428a6.37 6.37 0 01-2.74-.27 6.292 6.292 0 01-2.053-1.157c-.053-.044-.095-.083-.181-.05-1.137.436-2.181 1.028-3.087 1.846-1.246 1.126-2.091 2.48-2.304 4.176-.028.22-.034.443-.05.671zM16.88 5.93c-.511-1.036-1.226-1.893-2.248-2.462-.73-.405-1.51-.58-2.342-.469-.953.126-1.755.567-2.432 1.231C8.69 5.377 8.105 6.797 7.956 8.41a6.807 6.807 0 00.44 3.12c.458 1.18 1.163 2.174 2.245 2.864.993.633 2.063.826 3.203.48.957-.29 1.712-.879 2.32-1.657.97-1.236 1.402-2.658 1.423-4.086-.008-1.206-.23-2.233-.706-3.199z"/></symbol></svg>