<svg xmlns="http://www.w3.org/2000/svg" width="19" height="9"><path fill="#6f6f6f" d="M-.003 4.602v-.224l.167-.148C.33 4.079 4.31.569 9.314.569c5.003 0 8.984 3.51 9.15 3.66l.167.149v.224c0 .721-4.532 4.033-9.317 4.033S-.003 5.323-.003 4.602zm9.317 3.033c3.798 0 7.012-2.138 8.066-3-1.117-.862-4.336-3.066-8.066-3.066-3.737 0-6.961 2.212-8.072 3.071 1.02.839 4.223 2.995 8.072 2.995z"/><path fill="#6f6f6f" d="M9.111 7.635a3.036 3.036 0 01-3.033-3.033A3.036 3.036 0 019.111 1.57a3.036 3.036 0 013.033 3.033 3.037 3.037 0 01-3.033 3.033z"/></svg>