<svg xmlns="http://www.w3.org/2000/svg" width="29" height="24" viewBox="0 0 29 24"><g><g><path fill="#bd8064" d="M10.63 23.763c-1.799-.118-3.157-1.482-3.3-3.316-.119-1.49.852-3.231 2.937-3.674l.54-.115.59.13c1.014.223 1.8.746 2.335 1.554.552.835.718 1.755.492 2.735-.354 1.546-1.816 2.693-3.384 2.693-.07 0-.14-.003-.21-.007zm-.724-4.42c-.244.242-.38.566-.38.915-.002.359.131.69.373.934.24.241.568.374.921.374.724 0 1.296-.564 1.302-1.285a1.273 1.273 0 0 0-.368-.919 1.305 1.305 0 0 0-.93-.39h-.01c-.344 0-.667.132-.908.371z"/></g><g><path fill="#bd8064" d="M24.536 18.347c.556.841.719 1.768.484 2.757-.396 1.663-2.013 2.8-3.743 2.645-1.706-.152-3.061-1.582-3.154-3.327-.08-1.48.903-3.204 2.93-3.634l.552-.117.579.121c1.017.211 1.808.733 2.352 1.555zm-2.905 3.22c.715 0 1.279-.56 1.288-1.28a1.293 1.293 0 0 0-1.293-1.315h-.022a1.283 1.283 0 0 0-1.28 1.282 1.279 1.279 0 0 0 1.29 1.312z"/></g><g><path fill="#bd8064" d="M28.383 3.584H8.55l.16.638c.125.489.249.979.365 1.47.018.078.028.08.148.08h2.55l2.124.002 11.626-.003-.05.22c-.01.046-.017.08-.026.115l-.395 1.452c-.59 2.162-1.18 4.324-1.762 6.487-.064.239-.178.329-.42.329h-.003c-1.661-.007-3.322-.005-4.982-.006h-2.782c-1.848 0-3.697 0-5.545.004-.2 0-.302-.081-.351-.28-.198-.815-.402-1.628-.605-2.44l-.7-2.801a7458.96 7458.96 0 0 0-1.786-7.147C5.858.67 4.962-.026 3.886-.03a411.38 411.38 0 0 0-1.923 0l-.7.002c-.645 0-1.135.47-1.14 1.09-.005.616.47 1.092 1.108 1.107.186.005.372.003.558.002l2.164-.002.045.164c.016.053.03.102.04.15l1.112 4.44c.66 2.643 1.323 5.285 1.983 7.927.109.439.336.816.672 1.122.429.39.956.592 1.569.6.2.005.404.004.607.003l1.217-.001-.071.015h10.86l-.112.024.323-.02c.278-.017.553-.018.82-.018h.043c1.104-.003 1.969-.663 2.259-1.725 1.019-3.743 2.037-7.486 3.054-11.23.004-.011.006-.024.009-.037z"/></g></g></svg>