<svg id="Layer_1" data-name="Layer 1" xmlns="http://www.w3.org/2000/svg" viewBox="0 0 518 446.23"><defs><style>.cls-1{fill:#0b9444}.cls-2{fill:#fff}</style></defs><path class="cls-1" d="M239 108a23.6 23.6 0 00-7.47 6.51c-10.67 14.89-4.27 30.7 8.53 38.15 5.33 2.79 7.47 8.37 7.47 14v24.19h18.13v-24.2a16 16 0 018.53-14c8.53-4.65 13.87-13 13.87-22.33C288 110.82 262.44 95.94 239 108z"/><path class="cls-2" d="M256 276.87c-72.15 0-130.65-33.28-130.65-74.32s58.47-74.32 130.65-74.32 130.65 33.28 130.65 74.32-58.52 74.32-130.65 74.32z"/><path class="cls-1" d="M486.4 381.17H25.6v-16c0-126.93 103.47-230.4 230.4-230.4s230.4 103.47 230.4 230.4z"/><path class="cls-2" d="M96 326.77v-3.2a13.53 13.53 0 011.07-6.4c0-2.13 1.07-4.27 1.07-6.4 1.07-4.27 2.13-9.6 4.27-14.93 1.07-5.33 4.27-11.73 6.4-18.13s6.4-12.8 9.6-19.2c4.27-6.4 7.47-12.8 12.8-19.2 4.27-6.4 10.67-11.73 16-18.13 6.4-5.33 11.73-10.67 18.13-16s12.8-8.53 19.2-12.8c6.4-3.2 12.8-7.47 20.27-9.6a37.88 37.88 0 009.6-4.27l9.6-3.2c6.4-2.13 11.73-3.2 16-4.27 5.33-1.07 9.6-2.13 12.8-2.13a92.33 92.33 0 0111.73-1.07H240c-5.33 0-10.67 1.07-17.07 2.13-3.2 1.07-6.4 1.07-9.6 2.13s-6.4 2.13-10.67 3.2c-7.47 2.13-13.87 4.27-22.4 7.47-7.47 3.2-14.93 6.4-22.4 11.73-7.47 4.27-14.93 9.6-21.33 13.87-6.4 5.33-13.87 10.67-19.2 17.07-6.4 6.4-11.73 12.8-17.07 19.2C96 251 90.67 257.43 86.4 264.9a80.74 80.74 0 00-9.6 19.2 154.68 154.68 0 01-6.4 20.27c-1.07 3.2-2.13 5.33-2.13 7.47a13.53 13.53 0 00-1.07 6.4c-1.07 4.27-2.13 7.47-2.13 8.53H96zM25.6 446.23h461.87a26 26 0 0025.6-25.6H0a26 26 0 0025.6 25.6z"/><path class="cls-1" d="M486.4 395H25.6A26 26 0 000 420.63h512A26 26 0 00486.4 395z"/><text transform="translate(349.5 130.73)" style="isolation:isolate" font-size="151.53" font-family="Lato-Heavy,Lato" fill="#0b9444" id="x3">x3</text></svg>