<svg id="Capa_1" data-name="Capa 1" xmlns="http://www.w3.org/2000/svg" viewBox="0 0 512 427.35"><defs><style>.cls-1{fill:#0b9444}.cls-2{fill:#fff}.cls-3{fill:#7b7973}</style></defs><path class="cls-1" d="M484.2 43.07v-.75H27.55v.75c-14.78 1-25.8 12.77-27.55 27v300.15a29.45 29.45 0 004 15c5.77 10.15 14.28 15.28 26.05 15.28h164.83v41.6h-31.31a13.79 13.79 0 000 27.57h184.61a13.79 13.79 0 100-27.57h-31.31v-41.58h164.82c11.78 0 20.37-5.13 26.05-15.28a30.25 30.25 0 004.26-15V70.11c-1.75-14.26-13.53-26.02-27.8-27.04zm0 29.55v297.6c0 1.76-.75 2.51-2.51 2.51H30.06c-1.75 0-2.51-.75-2.51-2.51V70.11H484.2v2.51z" transform="translate(0 -42.33)"/><path class="cls-1" d="M182.74 227.95h146.54v51.03H182.74z"/><path class="cls-2" d="M138 122.81h236a21.77 21.77 0 0121.77 21.77v3A21.78 21.78 0 01374 169.4H138a21.78 21.78 0 01-21.78-21.77v-3A21.77 21.77 0 01138 122.81z" transform="translate(0 -42.33)"/><path class="cls-3" d="M374 125a19.59 19.59 0 0119.56 19.55v3A19.58 19.58 0 01374 167.18H138a19.59 19.59 0 01-19.56-19.56v-3A19.58 19.58 0 01138 125h236m0-4.44H138a24 24 0 00-24 24v3a24 24 0 0024 24h236a24 24 0 0024-24v-3a24 24 0 00-24-24z" transform="translate(0 -42.33)"/><path class="cls-2" d="M138 190h236a21.78 21.78 0 0121.78 21.78v3a21.78 21.78 0 01-21.78 21.8H138a21.78 21.78 0 01-21.78-21.74v-3A21.77 21.77 0 01138 190z" transform="translate(0 -42.33)"/><path class="cls-3" d="M374 192.21a19.58 19.58 0 0119.56 19.56v3A19.58 19.58 0 01374 234.36H138a19.59 19.59 0 01-19.56-19.56v-3A19.58 19.58 0 01138 192.21h236m0-4.44H138a24 24 0 00-24 24v3a24 24 0 0024 24h236a24 24 0 0024-24v-3a24 24 0 00-24-24z" transform="translate(0 -42.33)"/><circle class="cls-1" cx="143.65" cy="170.98" r="6.8"/><circle class="cls-1" cx="168.31" cy="170.98" r="6.8"/><circle class="cls-1" cx="192.97" cy="170.98" r="6.8"/><circle class="cls-1" cx="217.63" cy="170.98" r="6.8"/><circle class="cls-1" cx="242.3" cy="170.98" r="6.8"/><circle class="cls-1" cx="266.96" cy="170.98" r="6.8"/><circle class="cls-1" cx="143.65" cy="103.77" r="6.8"/><circle class="cls-1" cx="168.31" cy="103.77" r="6.8"/><circle class="cls-1" cx="192.97" cy="103.77" r="6.8"/><circle class="cls-1" cx="217.63" cy="103.77" r="6.8"/><circle class="cls-1" cx="242.3" cy="103.77" r="6.8"/><circle class="cls-1" cx="266.96" cy="103.77" r="6.8"/><path fill="#6ca943" d="M182.74 260.23v-32.29h32.29l-32.29 32.29z"/></svg>