<svg id="Capa_1" data-name="Capa 1" xmlns="http://www.w3.org/2000/svg" viewBox="0 0 616.46 635.25"><defs><style>.cls-1{fill:#0b9444}</style></defs><path class="cls-1" d="M508.85 106.68a16.43 16.43 0 00-13.27-6.75H125.95a16 16 0 00-2.12.14l-15.21-43.85a16.44 16.44 0 00-9.51-9.91L22.44 16.19a16.43 16.43 0 00-12 30.58l69.61 27.36 85.23 245.66a13.61 13.61 0 00-8.4 8.23l-24.64 68.45a13.69 13.69 0 0012.88 18.33h12.65a49.28 49.28 0 1073.26 0h107.45a49.28 49.28 0 1073.26 0h15.39a13.69 13.69 0 000-27.38H164.59L179.85 345a16.27 16.27 0 006.33 1.32h240.94a16.42 16.42 0 0015.64-11.41l68.45-213.57a16.42 16.42 0 00-2.36-14.66zM194.4 469.56a21.9 21.9 0 1121.9-21.9 21.92 21.92 0 01-21.9 21.9zm180.7 0a21.9 21.9 0 1121.9-21.9 21.93 21.93 0 01-21.9 21.9zm86.11-299.81h-83.83v-37h95.67zM437.08 245h-59.7v-42.39h73.29zm-168.3 0v-42.39h75.75V245zm75.75 32.86v35.64h-75.75v-35.6zM159.4 202.61h76.52V245h-61.8zm109.38-32.86v-37h75.75v37zm-32.85-37v37H148l-12.82-37zm-50.4 145.15h50.4v35.6h-38zm191.85 35.6v-35.59h49.17l-11.41 35.59z" transform="translate(0 138.31)"/><path class="cls-1" d="M399.57-14.37h-31l62 62 62-62h-31v-15.49A77.46 77.46 0 01539-107.32a77.46 77.46 0 0177.46 77.46A108.47 108.47 0 00508-138.31 108.47 108.47 0 00399.57-29.86z" transform="translate(0 138.31)" id="curved_arrow"/></svg>