<svg xmlns="http://www.w3.org/2000/svg" version="1.1" id="Layer_1" x="0" y="0" viewBox="0 0 490.667 490.667" xml:space="preserve" width="512" height="512"><g fill="#0b9444"><path d="M437.333 0h-384C23.936 0 0 23.936 0 53.333v384c0 29.397 23.936 53.333 53.333 53.333h384c29.397 0 53.333-23.936 53.333-53.333v-384C490.667 23.936 466.731 0 437.333 0zM138.667 42.667c5.888 0 10.667 4.779 10.667 10.667S144.555 64 138.667 64 128 59.221 128 53.333s4.779-10.666 10.667-10.666zm-42.667 0c5.888 0 10.667 4.779 10.667 10.667S101.888 64 96 64s-10.667-4.779-10.667-10.667S90.112 42.667 96 42.667zm-42.667 0C59.221 42.667 64 47.445 64 53.333S59.221 64 53.333 64s-10.667-4.779-10.667-10.667 4.779-10.666 10.667-10.666zm416 394.666c0 17.643-14.357 32-32 32h-384c-17.643 0-32-14.357-32-32V106.667h448v330.666z"/><path d="M162.432 328.341c.171.171.384.299.576.469a117.738 117.738 0 0016.832 13.824c.64.427 1.323.768 1.963 1.195 5.717 3.691 11.712 6.976 18.048 9.643.725.299 1.472.512 2.197.811 6.4 2.539 13.013 4.629 19.904 6.016.427.085.853.107 1.259.192 7.168 1.387 14.549 2.176 22.123 2.176s14.955-.789 22.123-2.155c.427-.085.853-.107 1.259-.192 6.869-1.387 13.483-3.477 19.861-6.016.747-.299 1.515-.512 2.261-.832 6.293-2.645 12.245-5.909 17.92-9.579.704-.448 1.451-.832 2.133-1.301 5.931-4.011 11.435-8.576 16.533-13.568.256-.256.555-.427.811-.661.043-.043.043-.128.085-.171 21.205-21.248 34.347-50.539 34.347-82.859 0-64.704-52.629-117.333-117.333-117.333S128 180.629 128 245.333c0 32.341 13.141 61.653 34.368 82.901.043.022.043.086.064.107zm82.901-179.008c52.928 0 96 43.072 96 96 0 20.843-6.848 40-18.176 55.744a91.026 91.026 0 00-42.411-37.504c10.901-9.771 17.92-23.808 17.92-39.573 0-29.397-23.936-53.333-53.333-53.333S192 194.603 192 224c0 15.765 6.997 29.803 17.92 39.573-17.621 7.595-32.533 20.672-42.411 37.525-11.328-15.765-18.176-34.923-18.176-55.765 0-52.928 43.072-96 96-96zM256 394.667v42.667c0 5.888 4.779 10.667 10.667 10.667h106.667c5.888 0 10.667-4.779 10.667-10.667v-42.667c0-5.888-4.779-10.667-10.667-10.667H266.667c-5.888 0-10.667 4.779-10.667 10.667zM117.333 448H224c5.888 0 10.667-4.779 10.667-10.667v-42.667c0-5.888-4.779-10.667-10.667-10.667H117.333c-5.888 0-10.667 4.779-10.667 10.667v42.667c.001 5.888 4.779 10.667 10.667 10.667z"/></g></svg>