<svg xmlns="http://www.w3.org/2000/svg" width="239" height="65"><path fill="#b1b800" d="M13.32 16.759c1.845-.228 4.165-.556 6.986-.556 11.04 0 25.785 10.977 41.147 10.977 7.646 0 11.393-.511 12.213-.664-5.15-7.894-9.846-10.363-10.263-10.745-24.262 0-23.382-5.685-36.15-5.685-5.947 0-10.974 3.955-13.933 6.673z"/><path fill="#609e00" d="M2.117 28.52s3.272-1.17 7.25-1.17c6.226 0 14.069 4.045 21.915 8.652 7.698 4.511 14.498 8.882 22.03 8.882 14.043 0 22.272-13.443 22.272-13.443s-6.505 1.89-16.233 1.89c-7.868 0-15.35-3.06-23.82-6.318-7.561-2.909-13.564-5.436-19.347-5.436-8.54 0-14.067 6.943-14.067 6.943z"/><path fill="#00702d" d="M.239 35.754c.428-.017 1.702-.066 1.859-.066 6.205-.017 11.096 5.635 16.275 11.603 5.987 6.902 12.635 14.268 22.419 14.268 11.253 0 19.872-11.396 19.872-11.396s-1.93 1.034-9.047 1.034c-8.254 0-13.902-3.69-20.958-7.964-7.007-4.246-14.245-9.185-22.315-9.243-4.123 0-5.793.668-8.105 1.764z"/><path fill="#e8e500" d="M23.44 7.55c8.167-5.856 20.618 2.66 33.703 2.66C53.396 6.06 47.608-.036 38.44.399c-8.841 0-15 7.15-15 7.15z"/><path fill="#00702d" d="M107.153 23.275c.062-.253.092-.482.09-.693-.017-.88-.652-1.32-1.909-1.32h-5.552l-1.649 6.93h5.22c.812 0 1.351-.028 1.61-.078.254-.063.505-.2.751-.423.327-.32.607-.951.84-1.885zm-2.847 11.844c.08-.328.113-.606.111-.814-.009-.51-.185-.875-.523-1.095-.347-.22-.909-.32-1.698-.32h-5.215l-1.786 7.504h5.97c.784 0 1.332-.13 1.63-.411.3-.266.561-.872.777-1.801zm13.144-16.065c.583.92.884 1.843.9 2.764.023 1.29-.257 2.917-.85 4.868a5.886 5.886 0 01-1.242 2.208c-.57.618-1.196 1.02-1.908 1.215-.609.167-1.823.316-3.655.44 1.55.196 2.69.544 3.406 1.047.89.622 1.34 1.49 1.361 2.589.004.365-.034.722-.129 1.088l-.93 3.884c-.273 1.17-.554 2.042-.834 2.618-.282.582-.697 1.117-1.247 1.619a5.466 5.466 0 01-2.47 1.337c-.952.236-2.34.356-4.166.356H82.251c.543-.825.937-1.543 1.191-2.162.255-.622.522-1.52.81-2.71l4.778-19.883a8.856 8.856 0 00.23-2.253c-.008-.47-.104-.968-.282-1.511h22.205c2.038 0 3.46.212 4.256.627a5.304 5.304 0 012.011 1.859zm27.054 22.257a9.157 9.157 0 00-.234 2.278c.007.46.12.955.34 1.498h-9.456l-.135-1.655c-.519 1.099-1.519 1.655-2.994 1.655h-7.806c-1.773 0-3.118-.315-4.026-.933a5.64 5.64 0 01-1.687-1.84c-.415-.733-.637-1.49-.65-2.256-.006-.482.09-1.158.295-2.017l2.405-10.114a9.478 9.478 0 00.226-2.254c-.005-.461-.104-.966-.288-1.523h11.247l-3.592 14.908c-.085.319-.119.58-.117.78.016.805.567 1.207 1.666 1.207h2.842c.694 0 1.196-.124 1.514-.365.311-.245.55-.701.702-1.386l2.74-11.367a8.841 8.841 0 00.254-2.254c-.008-.444-.114-.954-.309-1.523h11.228zm29.603 0c.278 1.66.637 2.913 1.066 3.776h-11.608c.395-.838.582-1.742.565-2.73a16.5 16.5 0 00-.137-1.943l-1.782-12.238-8.757 13.57c-.75 1.092-1.155 2.2-1.214 3.34h-6.225c.703-.621 1.506-1.663 2.41-3.111l11.713-17.825h11.23zm21.732-10.193c.151-.64.23-1.137.222-1.486-.007-.514-.189-.875-.532-1.104-.34-.228-.906-.336-1.672-.336h-2.592c-.97 0-1.643.12-2.004.353-.365.24-.65.748-.845 1.51l-2.037 8.579c-.167.702-.249 1.108-.249 1.22.008.415.176.722.498.913.321.183.837.278 1.547.278h3.046c.928 0 1.551-.103 1.87-.323.318-.212.573-.706.756-1.457zm10.333-1.523c.011.689-.093 1.494-.315 2.395l-1.853 7.657c-.272 1.125-.577 1.98-.907 2.564-.328.582-.82 1.125-1.463 1.627a5.199 5.199 0 01-2.17.988c-.826.174-2.075.26-3.746.26h-12.647c-1.625 0-2.722-.061-3.283-.177-.567-.12-1.139-.403-1.714-.847-1.336-1.066-2.02-2.473-2.049-4.204-.009-.502.071-1.091.238-1.776l2.193-9.18c.438-1.79 1.287-3.034 2.542-3.718 1.251-.69 3.272-1.034 6.07-1.034h12.707c.98 0 1.708.046 2.19.146.48.095.992.302 1.528.605a5.046 5.046 0 011.94 1.942c.471.83.72 1.748.74 2.752zm27.931 11.716c-.175.71-.245 1.477-.23 2.299.007.444.1.934.281 1.477h-12.062c.54-.81.94-1.522 1.192-2.145.248-.627.516-1.531.802-2.71l.974-4.076-6.668.055-1.236 5.1a9.484 9.484 0 00-.225 2.299c.01.444.102.934.282 1.477h-12.06c.538-.81.933-1.522 1.185-2.145.253-.627.521-1.531.804-2.71l2.962-12.305a9.179 9.179 0 00.233-2.254c-.008-.461-.108-.966-.287-1.523h11.246l-1.939 8.047h6.66l1.024-4.27a9.228 9.228 0 00.235-2.254c-.006-.461-.104-.966-.289-1.523h11.247z"/><path fill="#609e00" d="M94.097 53.77c.24.082.42.215.542.397.123.187.176.398.164.64-.015.27-.106.54-.27.813-.164.274-.42.49-.764.66a2.64 2.64 0 01-1.19.257 2.89 2.89 0 01-.729-.1 2.427 2.427 0 01-.648-.252l.345-.793c.15.116.334.207.542.278.216.07.417.103.61.103.336 0 .612-.087.834-.26a.897.897 0 00.355-.695c.012-.244-.064-.423-.237-.543-.168-.112-.398-.179-.693-.179-.218 0-.398.01-.542.025l.16-.722c.185.017.351.025.502.025.368 0 .652-.078.86-.223a.754.754 0 00.331-.586c.015-.324-.2-.486-.65-.486-.366 0-.744.092-1.138.262l-.199-.764a4.699 4.699 0 011.523-.244c.44 0 .786.1 1.035.294.251.2.365.47.35.81-.014.302-.126.57-.33.797a1.71 1.71 0 01-.763.485zm4.188 1.003H96.97l1.12-1.859zm1.092 1.681l-.761-5.05h-.323l-3.297 5.05h.928l.64-1.017h1.783l.102 1.017zm4.795 0l.083-2.756-1.665 2.827h-.313l-.348-2.819-1.176 2.748h-.87l2.12-4.98h.513l.348 3.23 1.839-3.23h.467l-.12 4.98zm3.022-1.946a3.09 3.09 0 01.545-1.602c.338-.502.745-.747 1.216-.747.675 0 .99.377.953 1.141-.038.67-.227 1.24-.565 1.73-.342.49-.782.735-1.32.735-.294 0-.512-.12-.654-.349-.134-.228-.198-.526-.175-.908zm-.93.091c-.03.576.099 1.045.386 1.406.284.353.693.531 1.22.531.562 0 1.052-.127 1.465-.39.417-.253.762-.634 1.032-1.136.267-.502.42-1.096.456-1.78.03-.61-.108-1.068-.417-1.382-.308-.308-.758-.465-1.348-.465-.786 0-1.431.32-1.95.95-.512.631-.797 1.39-.844 2.266zm6.807-2.369c.195-.042.365-.063.511-.063.595 0 .88.265.853.788a.878.878 0 01-.378.71c-.239.17-.548.254-.928.254-.158 0-.307-.017-.444-.05zm-.568 2.39c.192.046.396.066.606.066.641 0 1.17-.166 1.587-.485.417-.324.64-.756.666-1.315.052-.988-.58-1.482-1.907-1.482-.284 0-.645.025-1.087.078l-1.204 4.972h.903zm4.268-.112a3.086 3.086 0 01.548-1.602c.336-.502.74-.747 1.214-.747.674 0 .99.377.951 1.141-.036.67-.225 1.24-.563 1.73-.343.49-.784.735-1.32.735-.294 0-.51-.12-.65-.349-.139-.228-.203-.526-.18-.908zm-.927.091c-.029.576.095 1.045.381 1.406.285.353.695.531 1.221.531.564 0 1.054-.127 1.47-.39.418-.253.756-.634 1.028-1.136.268-.502.423-1.096.456-1.78.03-.61-.108-1.068-.416-1.382-.312-.308-.76-.465-1.347-.465-.787 0-1.434.32-1.953.95-.512.631-.799 1.39-.84 2.266zm11.779-3.149l-.189.783a.701.701 0 00-.13-.007c-.108 0-.189.028-.245.102a1.11 1.11 0 00-.174.33c-.28.65-.737 1.044-1.378 1.185.53.232.786.71.772 1.416-.004.194.014.315.05.37.035.05.11.073.22.073a.577.577 0 00.12-.012l-.183.784c-.06.013-.153.021-.278.021-.274 0-.475-.075-.597-.224-.12-.153-.173-.386-.154-.709.048-.918-.265-1.374-.944-1.374l-.533 2.266h-.85l.53-2.266c-.734 0-1.274.444-1.625 1.341-.13.34-.288.58-.47.738-.183.153-.422.228-.708.228a1.53 1.53 0 01-.29-.02l.19-.785a.401.401 0 00.114.012.335.335 0 00.235-.079c.06-.057.131-.182.22-.394.3-.734.798-1.207 1.492-1.419-.557-.15-.83-.535-.82-1.153a1.023 1.023 0 00-.033-.332c-.023-.07-.088-.1-.189-.1a.958.958 0 00-.155.009l.18-.784c.078-.01.184-.013.313-.013.272 0 .46.075.561.22.108.14.153.365.134.685-.018.38.052.664.21.842.162.174.431.266.81.266l.473-1.976h.854l-.477 1.976c.342 0 .65-.096.907-.279.261-.186.458-.46.6-.804.122-.32.271-.56.431-.706.166-.15.39-.225.685-.225.136 0 .242.005.321.014zm4.18.796h-2.305l-.27 1.15h1.656l-.176.739h-1.663l-.359 1.55h2.275l-.187.769h-3.18l1.175-4.98h3.221zm3.864 4.208h-.893l.55-2.32h-1.986l-.545 2.32h-.902l1.178-4.98h.898l-.454 1.921h1.99l.45-1.92h.907zm5.028 0h-.896l.547-2.32h-1.984l-.545 2.32h-.905l1.18-4.98h.903l-.458 1.921h1.99l.448-1.92h.909zm6.365-4.98l-1.167 4.98h.89l1.17-4.98zm-2.284 3.221a1.083 1.083 0 01-.345.73c-.217.208-.558.312-1.012.312-.048 0-.193-.005-.43-.021l.393-1.664c.22-.025.39-.039.51-.039.612 0 .908.23.884.682zm-.782-3.221h-.886l-1.169 4.98h1.485c.684 0 1.223-.178 1.62-.531.398-.357.61-.801.64-1.336.022-.411-.105-.722-.377-.947-.268-.223-.657-.331-1.16-.331-.13 0-.334.012-.597.037zm8.219.772h-2.306l-.274 1.15h1.663l-.18.739h-1.659l-.36 1.55h2.273l-.186.769h-3.183l1.18-4.98h3.221zm6.107 4.208h-.903l.996-4.208h-1.832l-.994 4.208h-.9l1.174-4.98h3.635zm3.135-4.224c.196-.042.366-.063.509-.063.598 0 .879.265.853.788-.02.308-.143.544-.377.71-.237.17-.548.254-.93.254-.158 0-.308-.017-.444-.05zm-.57 2.39c.193.046.394.066.605.066.644 0 1.169-.166 1.586-.485.42-.324.643-.756.669-1.315.05-.988-.582-1.482-1.905-1.482-.287 0-.65.025-1.086.078l-1.207 4.972h.902zm4.27-.112a3.086 3.086 0 01.548-1.602c.338-.502.739-.747 1.211-.747.678 0 .993.377.954 1.141-.036.67-.225 1.24-.563 1.73-.343.49-.785.735-1.318.735-.296 0-.514-.12-.653-.349-.142-.228-.2-.526-.179-.908zm-.929.091c-.032.576.099 1.045.384 1.406.285.353.693.531 1.221.531.563 0 1.055-.127 1.468-.39.417-.253.758-.634 1.03-1.136.267-.502.418-1.096.455-1.78.031-.61-.107-1.068-.414-1.382-.313-.308-.764-.465-1.352-.465-.784 0-1.431.32-1.95.95-.515.631-.795 1.39-.842 2.266zm8.167 1.129h-2.108c.374-.39.757-.921 1.158-1.585.4-.668.718-1.316.96-1.942h.875zm1.895-4.253h-2.35c-.491 1.145-.953 2.045-1.393 2.697-.438.647-.853 1.166-1.24 1.556h-.341l-.522 2.158h.793l.342-1.431h3.283l-.332 1.43h.79l.503-2.157h-.563zm5.23-.001a18.661 18.661 0 01-1.564 2.842c-.557.822-1.063 1.395-1.52 1.706-.458.32-1.026.482-1.703.482h-.085l.212-.814c.03.005.081.005.16.005.55 0 1.012-.212 1.392-.64l-1.087-3.58h.956l.758 2.916a17.655 17.655 0 001.55-2.917zm4.45-.024l-.183.787c-.021-.004-.067-.004-.141-.004-.097 0-.173.022-.23.076-.056.05-.121.17-.197.34a2.075 2.075 0 01-.592.776 1.948 1.948 0 01-.875.419c.593.216.884.689.86 1.416-.007.19.009.31.047.364.039.05.115.071.232.071.05 0 .096-.004.134-.016l-.186.795a1.642 1.642 0 01-.295.022c-.296 0-.512-.08-.638-.237-.125-.157-.18-.406-.16-.75.027-.47-.048-.806-.221-1.005-.17-.203-.46-.307-.87-.307h-.04l-.532 2.257h-.887l1.178-4.98h.886l-.473 1.972h.033c.803 0 1.349-.361 1.644-1.087.132-.32.279-.552.45-.701.166-.146.415-.221.74-.221.129 0 .233.004.316.013zm4.78.796h-1.576l-.99 4.208h-.895l.988-4.208h-1.588l.18-.771h4.064zm5.176-.772l-1.171 4.98h.892l1.166-4.98zm-2.286 3.221a1.085 1.085 0 01-.343.73c-.218.208-.557.312-1.011.312-.05 0-.197-.005-.434-.021l.396-1.664c.219-.025.387-.039.509-.039.61 0 .911.23.883.682zm-.783-3.221h-.885l-1.17 4.98h1.487c.684 0 1.224-.178 1.618-.531.398-.357.614-.801.641-1.336.025-.411-.106-.722-.374-.947-.272-.223-.658-.331-1.164-.331-.129 0-.33.012-.597.037zm10.031 4.98h-.903l.993-4.208h-1.827l-.994 4.208h-.907l1.179-4.98h3.635zm5.134 0h-.904l.781-3.316-3.406 3.395h-.384l1.193-5.059h.903l-.78 3.307 3.405-3.386h.38zm6.052-4.208H210.5l-.994 4.208h-.892l.99-4.208h-1.588l.18-.771h4.064zm2.893 2.527h-1.31l1.12-1.859zm1.094 1.681l-.76-5.05h-.321l-3.3 5.05h.93l.634-1.017h1.787l.104 1.017zm4.554 0h-.893l.549-2.32h-1.984l-.546 2.32h-.902l1.178-4.98h.898l-.456 1.921h1.992l.45-1.92h.908zm5.155 0h-.905l.782-3.316-3.407 3.395h-.382l1.194-5.059h.901l-.78 3.307 3.405-3.386h.38zm4.469-2.772l-.503-.004a2.084 2.084 0 01-.544-.087.647.647 0 01-.323-.216.545.545 0 01-.095-.361.852.852 0 01.346-.635c.212-.17.506-.253.878-.253.232 0 .438.012.607.037zm1.386-2.183a17.288 17.288 0 00-1.443-.083c-.697 0-1.248.154-1.655.464-.405.316-.617.694-.644 1.134-.008.203.042.406.152.598.112.195.357.348.741.464a1.812 1.812 0 00-.785.41 1.93 1.93 0 00-.517.749c-.077.19-.145.323-.2.382a.318.318 0 01-.23.086.905.905 0 01-.146-.012l-.18.784c.064.013.174.02.33.02.298 0 .532-.074.715-.223.185-.146.332-.378.446-.706.144-.402.351-.697.624-.892.271-.187.638-.29 1.096-.29h.14l-.497 2.07h.88zM128.837 63.173a1.025 1.025 0 01-.327.71c-.206.203-.54.307-1.003.307a6.85 6.85 0 01-.465-.02l.378-1.595c.183-.016.357-.025.523-.025.618 0 .913.208.894.623zm-.96-2.482h2.133l.172-.77h-3.023l-1.179 4.983h1.54c.685 0 1.22-.17 1.617-.515a1.77 1.77 0 00.63-1.287c.021-.398-.108-.709-.384-.933-.278-.22-.674-.328-1.187-.328-.168 0-.373.008-.612.037zm7.645-.771l-1.167 4.984h.893l1.165-4.984zm-2.283 3.22a1.088 1.088 0 01-.347.735c-.213.207-.556.315-1.01.315-.048 0-.193-.008-.432-.02l.396-1.669c.218-.025.386-.038.511-.038.61 0 .903.23.882.677zm-.782-3.22h-.886l-1.17 4.984h1.49c.68 0 1.217-.174 1.616-.532.398-.357.611-.8.64-1.34.017-.399-.105-.722-.377-.943-.268-.219-.655-.33-1.16-.33-.13 0-.334.011-.597.036zm7.999.958a1.385 1.385 0 00-.85-.278c-.503 0-.942.245-1.318.722a2.825 2.825 0 00-.608 1.631c-.02.395.058.705.24.925.179.221.432.33.762.33.52 0 .942-.139 1.253-.425l-.056.781c-.34.282-.813.422-1.418.422-.55 0-.98-.173-1.288-.53-.311-.357-.45-.823-.421-1.39.035-.63.185-1.188.459-1.686a3.07 3.07 0 011.033-1.14c.417-.27.902-.412 1.446-.412.398 0 .752.071 1.058.203zm5.195-.182h-1.568l-.995 4.208h-.89l.986-4.208h-1.587l.181-.776h4.066zm1.965-.016c.198-.043.37-.059.511-.059.596 0 .88.261.855.785a.886.886 0 01-.38.71c-.236.17-.548.252-.926.252a1.85 1.85 0 01-.445-.05zm-.568 2.385c.195.05.398.071.602.071.647 0 1.176-.163 1.593-.482.415-.323.64-.763.67-1.319.051-.988-.587-1.487-1.912-1.487-.283 0-.647.03-1.084.084l-1.209 4.972h.904zm4.268-.107a3.142 3.142 0 01.553-1.606c.333-.498.738-.752 1.213-.752.675 0 .99.386.95 1.146-.035.668-.222 1.245-.562 1.735-.345.489-.784.726-1.318.726-.297 0-.51-.108-.653-.34-.14-.233-.2-.527-.183-.91zm-.924.09c-.027.582.097 1.05.384 1.408.285.357.694.53 1.221.53.564 0 1.052-.127 1.47-.39.414-.256.755-.638 1.025-1.136.268-.506.42-1.1.459-1.785.029-.606-.108-1.066-.42-1.377-.308-.312-.76-.47-1.347-.47-.782 0-1.436.324-1.953.955-.515.635-.795 1.386-.84 2.266zm9.028-2.352h-2.22l-1.003 4.208h-.909l1.178-4.984h3.134zm1.254 2.262a3.12 3.12 0 01.55-1.606c.335-.498.742-.752 1.216-.752.672 0 .987.386.948 1.146-.034.668-.22 1.245-.561 1.735-.344.489-.78.726-1.317.726-.297 0-.514-.108-.652-.34-.143-.233-.203-.527-.183-.91zm-.929.09c-.025.582.104 1.05.388 1.408.286.357.693.53 1.222.53.564 0 1.049-.127 1.462-.39.422-.256.764-.638 1.032-1.136.269-.506.42-1.1.46-1.785.029-.606-.108-1.066-.42-1.377-.308-.312-.76-.47-1.342-.47-.788 0-1.44.324-1.956.955-.513.635-.793 1.386-.845 2.266zm10.917 1.856h-.9l.996-4.208h-1.83l-.996 4.208h-.901l1.174-4.984h3.638zm3.135-4.224c.198-.043.364-.059.51-.059.596 0 .881.261.853.785-.018.306-.142.543-.377.71-.238.17-.55.252-.928.252a1.87 1.87 0 01-.446-.05zm-.568 2.385c.195.05.394.071.605.071.64 0 1.171-.163 1.588-.482.413-.323.638-.763.668-1.319.052-.988-.588-1.487-1.91-1.487-.283 0-.646.03-1.082.084l-1.207 4.972h.904zm6.951 1.839h-.9l.781-3.316-3.404 3.395h-.388l1.195-5.063h.905l-.78 3.316 3.403-3.392h.38zm5.375-4.208h-2.224l-.998 4.208h-.91l1.18-4.984h3.133zm1.253 2.262c.03-.573.215-1.108.55-1.606.334-.498.739-.752 1.216-.752.673 0 .988.386.949 1.146-.036.668-.223 1.245-.563 1.735-.344.489-.78.726-1.315.726-.297 0-.515-.108-.656-.34-.141-.233-.203-.527-.181-.91zm-.927.09c-.027.582.1 1.05.384 1.408.284.357.697.53 1.222.53.566 0 1.054-.127 1.465-.39.419-.256.76-.638 1.032-1.136.267-.506.418-1.1.456-1.785.03-.606-.106-1.066-.42-1.377-.304-.312-.757-.47-1.344-.47-.787 0-1.438.324-1.955.955-.514.635-.79 1.386-.84 2.266zm9.713-2.352h-1.572l-.996 4.208h-.891l.99-4.208h-1.59l.184-.776h4.06zm1.276 2.262a3.131 3.131 0 01.552-1.606c.332-.498.739-.752 1.212-.752.674 0 .988.386.953 1.146-.036.668-.227 1.245-.565 1.735-.347.489-.78.726-1.318.726-.296 0-.514-.108-.655-.34-.14-.233-.2-.527-.18-.91zm-.927.09c-.03.582.102 1.05.384 1.408.288.357.695.53 1.224.53.562 0 1.048-.127 1.463-.39.42-.256.759-.638 1.032-1.136.265-.506.418-1.1.456-1.785.03-.606-.108-1.066-.42-1.377-.303-.312-.755-.47-1.342-.47-.788 0-1.438.324-1.954.955-.515.635-.795 1.386-.843 2.266zm6.798-2.435a3.68 3.68 0 01.471-.037c.506 0 .746.19.73.572a.667.667 0 01-.279.502c-.173.125-.433.196-.775.196-.207 0-.355 0-.442-.005zm-.44 1.859c.175-.008.319-.016.435-.016.691 0 1.026.28.999.834a.877.877 0 01-.36.664c-.222.17-.599.253-1.126.253-.171 0-.291-.004-.357-.012zm1.631-.307c.273-.1.489-.245.647-.436.154-.19.241-.411.255-.656.017-.39-.108-.693-.394-.904-.287-.216-.712-.32-1.287-.32a9.13 9.13 0 00-1.135.083l-1.176 4.972c.448.029.817.046 1.12.046.926 0 1.6-.162 2.015-.47.417-.311.642-.73.671-1.25a1.097 1.097 0 00-.171-.638 1.078 1.078 0 00-.545-.427zm5.318 2.739h-.899l1.023-4.229h-.95a15.314 15.314 0 01-.99 2.395c-.38.722-.74 1.211-1.092 1.481-.348.27-.807.403-1.375.403l.205-.822c.148 0 .286-.02.424-.07a1.3 1.3 0 00.412-.279c.142-.137.322-.398.544-.788.22-.386.452-.863.678-1.415.231-.556.438-1.108.62-1.66h2.591zm5.451-4.208H212.4l-.276 1.15h1.66l-.178.739h-1.661l-.361 1.547h2.277l-.189.772h-3.179l1.174-4.984h3.221zm3.868 4.208h-.892l.544-2.32h-1.983l-.547 2.32h-.9l1.174-4.984h.904l-.458 1.925h1.992l.448-1.925h.909zm5.151 0h-.905l.78-3.316-3.4 3.395h-.386l1.194-5.063h.904l-.784 3.316 3.406-3.392h.38zm4.469-2.773l-.504-.004a1.675 1.675 0 01-.542-.087.63.63 0 01-.323-.22.538.538 0 01-.093-.357.85.85 0 01.342-.639c.219-.166.508-.249.88-.249.234 0 .437.012.609.033zm1.386-2.179a16.088 16.088 0 00-1.44-.09c-.695 0-1.248.161-1.654.468-.406.315-.618.694-.641 1.13-.015.206.04.41.148.6.11.191.357.35.743.465a1.803 1.803 0 00-.79.416c-.225.2-.4.448-.516.742-.08.195-.145.32-.201.378a.289.289 0 01-.226.091.59.59 0 01-.15-.016l-.18.788c.066.017.175.025.33.025.295 0 .535-.079.718-.228.18-.149.332-.386.448-.71.139-.398.347-.697.619-.884.275-.195.638-.29 1.097-.29h.14l-.497 2.067h.88z"/></svg>