<svg xmlns="http://www.w3.org/2000/svg" width="17" height="13"><path fill="#6faa43" d="M2.554 13.064a1.687 1.687 0 01-1.702-1.687v-9.26c0-.934.745-1.683 1.68-1.683 4.212-.002 8.425-.002 12.637 0 .939 0 1.681.75 1.682 1.69v9.218c0 .984-.739 1.721-1.727 1.721H2.554zM15.163 3.64c-.023.018-.042.031-.059.047a7444.635 7444.635 0 01-4.025 3.807c-.466.44-.931.885-1.406 1.317a1.52 1.52 0 01-.902.414c-.459.041-.841-.137-1.169-.439-.277-.257-.542-.528-.812-.794L2.627 3.88a3.991 3.991 0 00-.087-.084v7.58h12.623zM3.243 2.12l5.414 5.346L14.31 2.12z"/></svg>