<svg xmlns="http://www.w3.org/2000/svg" width="120" height="112"><path fill="#51904b" d="M2.671.255h114.991c.995 0 1.803.808 1.803 1.804v79.055c0 8.403-3.436 16.043-8.972 21.58-5.537 5.535-13.176 8.972-21.579 8.972H2.671a1.804 1.804 0 01-1.804-1.804V64.366h3.609v43.692h84.438c7.407 0 14.143-3.032 19.027-7.916 4.884-4.885 7.917-11.62 7.917-19.028V3.862H.867V2.06c0-.996.808-1.804 1.804-1.804z"/><path fill="#51904b" d="M94.732 89.352H80.44V20.224c-.76.2-1.474.387-2.187.578-4.748 1.273-9.494 2.55-14.245 3.812-.284.075-.334.195-.334.454.005 20.09.004 40.179.005 60.268 0 .115.01.229.018.389h3.247v3.896H43.71V33.04l-16.778 4.5v51.746h-9.187v-3.892h5.263v-.578c0-16.58.002-33.16-.011-49.74 0-.441.142-.587.55-.696a8070.369 8070.369 0 0023.64-6.326c.323-.086.553-.043.826.139a1449.01 1449.01 0 009.556 6.332c.33.218.429.444.429.823-.01 16.475-.008 32.949-.008 49.424v.598h1.768v-.541c0-20.875.002-41.75-.011-62.625 0-.41.124-.54.507-.642 7.882-2.1 15.76-4.214 23.637-6.336.33-.09.58-.058.87.134 3.208 2.123 6.423 4.236 9.646 6.338.257.167.33.34.33.63-.007 22.185-.006 44.37-.006 66.554z"/><path fill="#6fb143" d="M40.835 71.136v8.071h-4.521v-7.86l4.52-.21zM73.26 25.757l4.512-1.049v8.102c-1.478.278-2.974.56-4.513.848zM40.834 46.406l-4.554.853v-.416c0-2.355.006-4.71-.007-7.066-.002-.3.069-.435.375-.503 1.387-.308 2.768-.641 4.186-.973zM40.84 60.2c.008.161.02.276.02.391 0 2.433-.005 4.867.008 7.3 0 .316-.083.425-.41.441-1.214.056-2.427.146-3.641.221-.156.01-.313.001-.503.001v-7.868c1.498-.16 2.999-.322 4.526-.487zm36.947-16.46l-4.538.57c-.011-.16-.026-.284-.026-.407-.001-2.37 0-4.736-.004-7.104 0-.23.009-.392.3-.438 1.367-.217 2.732-.454 4.098-.682.049-.008.1-.002.17-.002zm-36.946 5.512v8.097l-4.528.568v-7.884l4.528-.781zm36.939-2.626v8.057c-1.504.093-3.008.187-4.536.28-.009-.151-.02-.267-.02-.382-.002-2.368.003-4.735-.008-7.103-.002-.312.08-.421.406-.45 1.302-.114 2.601-.265 3.901-.401.076-.008.153-.001.256-.001zm-.007 18.964h-4.517v-7.856l4.517-.214zM70.8 26.328v.445c0 2.314-.007 4.63.008 6.944.002.315-.096.424-.4.476-1.258.219-2.513.465-3.8.706V27.31l4.192-.982zm-4.185 11.229l4.164-.71c.008.162.02.287.02.413 0 2.314-.007 4.63.01 6.943.003.344-.111.442-.43.477-1.246.138-2.49.301-3.764.46zm-.002 10.24c1.374-.148 2.747-.296 4.155-.45v7.768l-4.155.268zm-.007 10.241l4.167-.194v7.74h-4.167zM29.68 71.652l4.14-.193v7.748h-4.14zm-.007-30.734l4.144-.976v7.785l-4.144.784zm4.18 9.564v7.348c0 .19.051.395-.252.431-1.299.151-2.596.316-3.949.483v-.436c0-2.225.008-4.45-.008-6.675-.002-.349.067-.49.446-.546 1.138-.163 2.268-.383 3.402-.578.101-.018.204-.016.361-.027zm-.036 18.246l-4.14.262v-7.58l4.14-.453z"/></svg>