<svg xmlns="http://www.w3.org/2000/svg" width="119" height="112"><path fill="#51904b" d="M1.82.255h114.992c.994 0 1.802.808 1.802 1.804v79.055c0 8.403-3.436 16.043-8.972 21.58-5.536 5.535-13.175 8.972-21.578 8.972H1.82a1.804 1.804 0 01-1.804-1.804V64.366h3.609v43.692h84.438c7.407 0 14.143-3.032 19.027-7.916 4.885-4.885 7.917-11.62 7.917-19.028V3.862H.016V2.06c0-.996.809-1.804 1.805-1.804z"/><path fill="#51904b" d="M64.3 62.661h-8.333v-23.35l-6.104 2.643c-.223-.96-.437-1.832-.627-2.707-.213-.98-.393-1.969-.613-2.949-.082-.367.004-.603.344-.763 1.328-.625 2.647-1.27 3.981-1.881 1.335-.613 2.681-1.199 4.027-1.788.173-.075.37-.138.556-.14 2.176-.015 4.352-.018 6.528-.022.073 0 .145.02.242.036zM52.731 78.755c-1.715-.975-3.189-1.675-4.804-1.922l-.66-.1a143.454 143.454 0 00-3.798-.55c-2.884-.367-5.126-1.898-6.482-4.426-.086-.161-.164-.323-.249-.484l-.538 1.473c-2.229 6.155-4.45 12.312-6.672 18.469-.099.276-.18.558-.307.947.896-.291 1.69-.543 2.478-.807 2.996-1.005 5.992-2.012 8.985-3.027.3-.101.516-.126.708.198.312.528.678 1.024 1.006 1.544 1.71 2.715 3.415 5.434 5.124 8.149.123.195.272.372.478.65l6.881-18.97a54.008 54.008 0 01-2.15-1.144zm31.375.461c-.647-1.8-1.741-4.675-2.66-7.089-.08.14-.154.273-.24.418-1.074 1.813-2.768 3.001-4.897 3.433-1.29.264-2.677.481-4.124.644-2.232.254-4.105.85-5.726 1.822a39.466 39.466 0 01-3.126 1.687c-.03.013-.058.022-.086.036 1.887 5.257 4.86 13.68 6.394 17.927.084.235.193.461.325.775.439-.655.842-1.23 1.216-1.825 1.767-2.803 3.532-5.608 5.285-8.42.209-.333.405-.416.796-.283 3.545 1.206 7.098 2.39 10.65 3.576.232.077.47.132.763.213-.075-.238-.118-.396-.173-.55-1.463-4.122-2.915-8.248-4.396-12.364z"/><path fill="#51904b" d="M90.463 39.66c-.3 1.726-.602 3.452-.897 5.178-.293 1.705-.247 3.403.065 5.102.25 1.356.493 2.714.693 4.078.318 2.179-.144 4.15-1.704 5.78-.673.703-1.348 1.415-2.089 2.045-2.083 1.77-3.686 3.87-4.768 6.395-.523 1.22-1.17 2.397-1.848 3.542-.878 1.48-2.227 2.388-3.905 2.729a46.02 46.02 0 01-3.996.623c-2.248.255-4.37.853-6.326 2.026a37.465 37.465 0 01-3.007 1.62c-2.208 1.066-4.442 1.146-6.664.018a62.27 62.27 0 01-2.544-1.344c-1.674-.953-3.387-1.807-5.32-2.102-1.496-.228-2.992-.464-4.493-.655-2.411-.308-4.21-1.522-5.35-3.647-.935-1.742-1.799-3.524-2.655-5.306a5.795 5.795 0 00-1.17-1.622 294.117 294.117 0 01-4.892-4.972c-.894-.932-1.293-2.078-1.388-3.378-.115-1.573.219-3.075.53-4.585.392-1.905.683-3.816.385-5.76-.243-1.584-.564-3.156-.825-4.738-.387-2.347.079-4.425 1.86-6.137 1.277-1.226 2.474-2.534 3.723-3.79a11.25 11.25 0 002.305-3.298c.572-1.253 1.157-2.504 1.803-3.72 1.075-2.024 2.624-3.495 4.96-3.943.809-.155 1.622-.32 2.44-.388 2.803-.233 5.44-.942 7.91-2.336 1.598-.901 3.205-1.826 5.019-2.27h1.62c1.229.178 2.366.612 3.445 1.216 1.007.563 2.033 1.09 3.032 1.667 1.087.626 2.228 1.102 3.473 1.287 1.645.244 3.29.484 4.94.69 2.411.3 4.263 1.427 5.41 3.605.755 1.43 1.538 2.849 2.198 4.323.598 1.338 1.423 2.452 2.484 3.462 1.497 1.425 2.904 2.946 4.315 4.458.624.668.989 1.495 1.114 2.413.038.278.078.556.118.834zm-30.93 29.88c12.404-.127 22.294-10.284 22.085-22.748-.201-12.1-10.154-22.133-22.88-21.92-11.901.199-21.862 10.328-21.716 22.17-.384 11.469 9.193 22.633 22.51 22.498z"/></svg>