<svg xmlns="http://www.w3.org/2000/svg" width="120" height="112"><path fill="#51904b" d="M2.313.255h114.991c.995 0 1.803.808 1.803 1.804v79.055c0 8.403-3.436 16.043-8.972 21.58-5.537 5.535-13.176 8.972-21.579 8.972H2.313a1.804 1.804 0 01-1.804-1.804V64.366h3.61v43.692h84.437c7.407 0 14.143-3.032 19.027-7.916 4.884-4.885 7.917-11.62 7.917-19.028V3.862H.51V2.06c0-.996.808-1.804 1.804-1.804z"/><path fill="#51904b" d="M40.705 45.946c.05-4.09.108-8.181.154-12.271.003-.235.09-.356.278-.474 5.239-3.322 10.475-6.65 15.717-9.97a.69.69 0 01.484-.08c6.943 1.844 13.883 3.698 20.824 5.55.874.233 1.746.472 2.623.69.22.057.298.148.304.379.134 4.9.276 9.8.417 14.7.056 1.938.119 3.876.16 5.815.006.326.102.46.425.546 3.87 1.018 7.735 2.058 11.606 3.077.298.078.382.202.389.494.148 5.582.306 11.163.463 16.744.066 2.338.132 4.677.21 7.014.009.276-.062.442-.304.598-5.137 3.309-10.266 6.629-15.404 9.937a.716.716 0 01-.51.072c-5.53-1.454-11.055-2.92-16.58-4.382-2.588-.685-5.174-1.375-7.765-2.045-.161-.041-.393.029-.542.125a1902.12 1902.12 0 00-9.147 5.914.808.808 0 01-.716.118c-8.181-2.172-16.364-4.337-24.548-6.495-.284-.074-.391-.178-.386-.492.12-7.828.23-15.656.332-23.484.003-.283.1-.438.333-.586 5.22-3.308 10.435-6.626 15.658-9.931a.727.727 0 01.513-.07c1.558.4 3.11.819 4.665 1.23.078.022.158.035.345.075 0-.967-.01-1.883.002-2.798zm-5.942 26.657c-1.631-.442-3.261-.89-4.894-1.324-.204-.055-.251-.153-.24-.35.072-1.277.135-2.557.2-3.836l.159-3.083-5.778-1.368c-.007.158-.015.25-.016.343-.04 4.77-.075 9.543-.126 14.314-.003.324.097.433.403.512 4.774 1.226 9.544 2.468 14.315 3.705.77.2 1.54.397 2.339.603.009-.133.02-.224.02-.314-.03-4.96-.063-9.92-.088-14.878-.002-.231-.071-.323-.301-.374-1.214-.273-2.424-.564-3.635-.851-.613-.145-1.225-.293-1.881-.45l-.302 7.37c-.083-.008-.131-.006-.175-.02zM45.866 38.68c-.042 4.795-.081 9.59-.131 14.386-.003.274.078.384.344.452 5.069 1.307 10.135 2.624 15.202 3.938.495.129.993.252 1.526.388 0-.368.002-.683 0-1-.03-4.7-.061-9.402-.08-14.103-.001-.304-.09-.427-.39-.49-.782-.158-1.556-.358-2.333-.541l-3.085-.731-.306 7.4-5.321-1.451c.012-.26.023-.503.036-.747.105-2.043.208-4.085.324-6.126.014-.25-.05-.346-.3-.401-1.065-.236-2.125-.496-3.188-.747-.753-.178-1.506-.355-2.28-.54-.008.129-.017.22-.018.313zm29.946 43.473c-.036-5.008-.074-10.015-.104-15.022-.002-.221-.1-.267-.283-.31-1.567-.364-3.131-.74-4.696-1.11-.266-.063-.534-.12-.83-.187l-.297 7.389c-1.744-.475-3.428-.941-5.117-1.39-.242-.065-.2-.214-.191-.375l.333-6.445c.008-.148 0-.296 0-.441l-5.781-1.367v.408c-.036 4.749-.068 9.498-.114 14.246-.004.315.075.439.389.519 4.355 1.117 8.705 2.25 13.057 3.378 1.19.309 2.382.616 3.614.935.01-.113.02-.171.02-.228zM71.24 60.959c2.06.469 4.12.937 6.183 1.397.099.022.23-.02.324-.072 3.297-1.83 6.592-3.665 9.887-5.5.093-.051.182-.11.325-.198-.136-.036-.192-.053-.25-.066-2.345-.537-4.69-1.077-7.038-1.602-.135-.03-.321.025-.443.104-1.722 1.102-3.437 2.215-5.153 3.325l-3.93 2.539c.059.046.075.068.095.073zM59.85 36.793c1.476.333 2.95.67 4.43.988a.864.864 0 00.555-.081c2.859-1.574 5.712-3.162 8.565-4.748.507-.281 1.01-.568 1.582-.89-.141-.04-.203-.061-.267-.076-1.75-.401-3.497-.807-5.25-1.192-.157-.034-.37.022-.511.109-2.062 1.264-4.118 2.539-6.174 3.814-1.046.648-2.091 1.3-3.195 1.987.133.045.198.074.265.089zm-1.371-8.52a.694.694 0 00-.455.065c-3.208 1.864-6.41 3.738-9.613 5.61-.083.05-.16.11-.28.194 1.79.405 3.516.803 5.247 1.177a.852.852 0 00.578-.105c2.725-1.777 5.44-3.567 8.158-5.356.26-.172.52-.347.843-.565-1.55-.355-3.012-.696-4.478-1.02zM26.647 58.457c1.716.39 3.43.785 5.15 1.162.137.03.326-.023.449-.104 1.595-1.036 3.183-2.083 4.772-3.13 1.128-.742 2.25-1.495 3.385-2.225.272-.175.169-.414.162-.625-.002-.07-.19-.168-.307-.196a135.58 135.58 0 00-3.395-.78.902.902 0 00-.586.1c-2.045 1.179-4.08 2.374-6.118 3.565l-3.72 2.173c.124.036.165.05.208.06zm11.329 2.556c1.589.362 3.177.727 4.768 1.077.118.026.275-.03.389-.092.947-.518 1.889-1.045 2.832-1.57l1.623-.905c-.09-.044-.127-.07-.17-.081-1.664-.443-3.327-.89-4.996-1.318-.134-.034-.324.02-.448.097-.675.425-1.338.87-2.004 1.308l-2.16 1.42c.1.04.133.057.166.064z"/></svg>