<svg xmlns="http://www.w3.org/2000/svg" width="120" height="112"><path fill="#51904b" d="M2.671.255h114.991c.995 0 1.803.808 1.803 1.804v79.055c0 8.403-3.436 16.043-8.972 21.58-5.537 5.535-13.176 8.972-21.579 8.972H2.671a1.804 1.804 0 01-1.804-1.804V64.366h3.609v43.692h84.438c7.407 0 14.143-3.032 19.027-7.916 4.885-4.885 7.917-11.62 7.917-19.028V3.862H.867V2.06c0-.996.808-1.804 1.804-1.804z"/><path fill="#51904b" d="M79.949 52.266c.52 0 .97-.183 1.352-.547.38-.364.66-.94.84-1.728.182-.788.272-2.016.272-3.684 0-2.447-.208-4.092-.622-4.935-.415-.841-1.037-1.262-1.867-1.262-.847 0-1.458.428-1.836 1.288-.377.858-.566 2.448-.566 4.77 0 2.348.208 3.95.622 4.81.415.857 1.017 1.287 1.805 1.287z"/><path fill="#51904b" d="M40.142 62.176c-1.65.006-2.123-.426-2.11-2.093.08-9.13.039-18.26.039-27.39v-1.851h68.354v31.303h-13.74c-17.514-.001-35.03-.025-52.543.03zm34.194-23.374c-1.262 1.399-1.893 3.85-1.893 7.354 0 1.425.124 2.726.37 3.904.248 1.177.594 2.105 1.038 2.784.613.956 1.396 1.68 2.35 2.175.957.495 2.21.742 3.76.742 2.766 0 4.715-.776 5.846-2.326 1.13-1.55 1.698-3.998 1.698-7.342 0-1.491-.172-2.925-.516-4.3a8.075 8.075 0 00-.698-1.892 6.38 6.38 0 00-1.188-1.546c-.503-.49-1.152-.888-1.95-1.194-.795-.306-1.813-.46-3.054-.46-2.581 0-4.502.7-5.763 2.1zm-19.593 13.2h9.328v3.444h4.463v-3.444h2.313v-3.973h-2.313V36.702H64.07L54.743 47.79z"/><path fill="#51904b" d="M64.07 42.23l-4.928 5.8h4.929zm22.44 22.473c4.338.038 7.673 3.43 7.665 7.803-.007 4.469-3.366 7.857-7.79 7.859-4.367 0-7.815-3.492-7.789-7.894.026-4.39 3.506-7.805 7.913-7.768zm-.043 11.529c2.115-.02 3.666-1.607 3.64-3.727-.026-2.12-1.62-3.682-3.723-3.65-2.1.032-3.679 1.646-3.657 3.737.023 2.087 1.64 3.66 3.74 3.64zM26.5 65.304c4.293.01 7.716 3.454 7.73 7.78.017 4.447-3.376 7.964-7.714 7.995-4.296.033-7.832-3.524-7.857-7.902a7.81 7.81 0 017.84-7.873zm-.046 11.644c2.043-.017 3.74-1.706 3.746-3.727.005-2.056-1.667-3.77-3.686-3.773a3.717 3.717 0 00-3.73 3.715c-.001 2.076 1.672 3.8 3.67 3.785zm80.106-12.232c-.01-.165-.074-.327-.137-.594H91.745c2.655 2.006 3.841 4.52 4.186 7.551 2.765-1.022 5.387-1.988 8.007-2.96 2.792-1.035 2.792-1.038 2.621-3.997z"/><path fill="#51904b" d="M81.354 63.968c-2.683 2.308-4.254 4.78-4.286 8.128H36.023c-1.492-6.347-4.798-9.541-9.745-9.41-4.95.132-7.998 3.183-9.293 9.375h-3.092c0-3.8.327-7.547-.07-11.215-.763-7.072 2.548-13.026 4.739-19.301.118-.337.728-.712 1.112-.715 5.33-.047 10.66-.032 16.225-.032v23.17zM33.1 44.267c-4.027 0-7.867-.012-11.706.017-.342.004-.896.188-.99.429-1.045 2.68-2.02 5.388-3.036 8.153H33.1z"/></svg>