<svg xmlns="http://www.w3.org/2000/svg" width="119" height="112"><path fill="#51904b" d="M1.979.255h114.99c.996 0 1.804.808 1.804 1.804v79.055c0 8.403-3.436 16.043-8.972 21.58-5.537 5.535-13.176 8.972-21.58 8.972H1.98a1.804 1.804 0 01-1.804-1.804V64.366h3.609v43.692h84.438c7.407 0 14.143-3.032 19.027-7.916 4.885-4.885 7.917-11.62 7.917-19.028V3.862H.174V2.06A1.807 1.807 0 011.98.255z"/><path fill="#51904b" d="M106.057 89.489H14.336v-5.815h91.721zm-85.169-9.506h13.103v-11.42c-4.296.521-8.669.791-13.103.791z"/><path fill="#eee64f" d="M83.782 79.983h13.103V43.095l-.096-.136a108.272 108.272 0 01-13.007 9.691z"/><path fill="#b1ba32" d="M68.059 79.983H81.16V53.47a107.661 107.661 0 01-13.102 6.86z"/><path fill="#51904b" d="M36.611 79.983h13.102V65.807a107.378 107.378 0 01-13.102 2.59z"/><path fill="#6fb143" d="M52.334 79.983h13.104v-19.09a106.597 106.597 0 01-13.104 4.56z"/><path fill="#51904b" d="M93.594 26.054l2.633 2.427C77.043 48.83 51.651 60.017 24.582 60.018l-11.691-.006v5.178h11.69s20.834.617 41.574-8.908c12.658-5.813 24.117-13.864 33.909-24.258l.003-.002 2.472 2.28 2.668-11.87z"/></svg>