<svg xmlns="http://www.w3.org/2000/svg" width="29" height="29"><path fill="#7494c9" d="M13.325.226h1.801c.072.016.144.035.217.046.657.098 1.322.16 1.971.298 5.432 1.148 9.842 5.763 10.758 11.243.087.524.148 1.053.22 1.58v1.8c-.016.08-.035.162-.048.243-.097.648-.16 1.303-.295 1.943-1.123 5.32-5.59 9.689-10.937 10.7-.624.119-1.257.189-1.886.28h-1.8c-.073-.015-.146-.034-.218-.045-.658-.098-1.322-.161-1.97-.298-5.434-1.148-9.844-5.763-10.76-11.243-.087-.524-.148-1.053-.22-1.58v-1.8c.016-.081.035-.162.047-.243.098-.648.161-1.303.296-1.943C1.625 5.887 6.093 1.517 11.44.506c.624-.118 1.257-.188 1.886-.28z"/><path fill="#fff" d="M22.615 18.855c-.61 1.236-1.543 2.203-2.803 2.903-1.443.804-3.201 1.205-5.277 1.205-2.008 0-3.744-.339-5.204-1.017-1.462-.679-2.548-1.68-3.26-3.004-.712-1.324-1.068-2.765-1.068-4.324 0-1.71.404-3.303 1.215-4.779.809-1.476 1.916-2.584 3.323-3.324 1.406-.739 3.012-1.109 4.82-1.109 1.535 0 2.898.298 4.09.895 1.194.596 2.105 1.444 2.735 2.542.63 1.1.945 2.3.945 3.602 0 1.553-.478 2.955-1.434 4.21-1.2 1.582-2.735 2.373-4.61 2.373-.506 0-.886-.088-1.141-.264-.256-.177-.426-.436-.512-.777-.717.694-1.546 1.041-2.483 1.041-1.011 0-1.85-.348-2.515-1.045-.667-.697-1-1.624-1-2.78 0-1.43.402-2.736 1.205-3.917.974-1.436 2.222-2.155 3.743-2.155 1.084 0 1.884.414 2.4 1.242l.23-1.013h2.41l-1.378 6.545c-.086.414-.128.683-.128.804 0 .153.035.266.105.342.07.077.153.115.25.115.293 0 .67-.177 1.133-.53.62-.462 1.123-1.083 1.506-1.863a5.407 5.407 0 00.576-2.419c0-1.497-.542-2.749-1.625-3.757-1.084-1.007-2.597-1.51-4.538-1.51-1.65 0-3.048.335-4.196 1.008a6.4 6.4 0 00-2.592 2.84 8.744 8.744 0 00-.872 3.811c0 1.284.324 2.453.972 3.506.648 1.053 1.558 1.822 2.73 2.305 1.17.485 2.512.727 4.02.727 1.456 0 2.707-.203 3.754-.608 1.047-.404 1.89-1.012 2.53-1.82zM11.27 16.81c.313.366.7.548 1.164.548.346 0 .673-.084.977-.254.23-.122.459-.314.684-.575.323-.372.6-.914.836-1.625.234-.713.352-1.376.352-1.991 0-.688-.161-1.216-.48-1.584a1.534 1.534 0 00-1.21-.553c-.523 0-1.007.203-1.451.608-.445.404-.78.98-1.005 1.73-.225.749-.337 1.412-.337 1.99 0 .773.156 1.342.47 1.707z"/></svg>