<svg xmlns="http://www.w3.org/2000/svg" width="45" height="45"><path fill="#2e497a" d="M23.686.229c.113.024.226.055.34.072 1.028.154 2.067.25 3.082.465C35.603 2.56 42.5 9.768 43.932 18.326c.137.82.232 1.646.346 2.469v2.812c-.025.126-.056.252-.075.38-.153 1.012-.251 2.034-.462 3.034-1.756 8.31-8.745 15.134-17.106 16.714-.976.184-1.966.294-2.95.438H20.87c-.113-.025-.226-.055-.34-.072-1.028-.154-2.067-.251-3.082-.465C8.952 41.842 2.055 34.635.624 26.075c-.137-.82-.232-1.645-.346-2.468v-2.812c.025-.127.056-.253.075-.38.153-1.012.25-2.035.462-3.034C2.57 9.07 9.559 2.247 17.92.667c.976-.185 1.966-.294 2.95-.438zm1.23 37.167v-15.38h4.159l.373-5.238h-4.65c0-1.102-.034-2.155.012-3.204.033-.753.529-1.235 1.302-1.3.713-.058 1.434-.035 2.152-.044.376-.004.75-.001 1.127-.001V6.982c-1.602 0-3.17-.02-4.736.009a11.62 11.62 0 00-2.05.195c-2.523.498-4 2.188-4.123 4.75-.064 1.344-.02 2.694-.025 4.04v.829h-3.32v5.335h3.433v15.256z"/></svg>