<svg xmlns="http://www.w3.org/2000/svg" width="76" height="62"><path fill="#b1b800" d="M13.32 16.759c1.845-.228 4.165-.556 6.986-.556 11.04 0 25.785 10.977 41.147 10.977 7.646 0 11.393-.511 12.213-.664-5.15-7.894-9.846-10.363-10.263-10.745-24.262 0-23.382-5.685-36.15-5.685-5.947 0-10.974 3.955-13.933 6.673z"/><path fill="#609e00" d="M2.117 28.52s3.272-1.17 7.25-1.17c6.226 0 14.069 4.045 21.915 8.652 7.698 4.511 14.498 8.882 22.03 8.882 14.043 0 22.272-13.443 22.272-13.443s-6.505 1.89-16.233 1.89c-7.868 0-15.35-3.06-23.82-6.318-7.561-2.909-13.564-5.436-19.347-5.436-8.54 0-14.067 6.943-14.067 6.943z"/><path fill="#00702d" d="M.239 35.754c.428-.017 1.702-.066 1.859-.066 6.205-.017 11.096 5.635 16.275 11.603 5.987 6.902 12.635 14.268 22.419 14.268 11.253 0 19.872-11.396 19.872-11.396s-1.93 1.034-9.047 1.034c-8.254 0-13.902-3.69-20.958-7.964-7.007-4.246-14.245-9.185-22.315-9.243-4.123 0-5.793.668-8.105 1.764z"/><path fill="#e8e500" d="M23.44 7.55c8.167-5.856 20.618 2.66 33.703 2.66C53.396 6.06 47.608-.036 38.44.399c-8.841 0-15 7.15-15 7.15z"/></svg>