<svg xmlns="http://www.w3.org/2000/svg" width="14" height="15"><path fill="#6f6f6f" d="M10.579 4.577c.338.001.676-.003 1.013.007 1.12.034 2.322 1.145 2.137 2.588a2.752 2.752 0 01-.391 1.115.16.16 0 00-.02.107 2.593 2.593 0 01-.235 1.792.31.31 0 00-.027.16c.058.673-.08 1.294-.484 1.847a.25.25 0 00-.043.14c-.008.45-.088.885-.303 1.286-.337.623-.863 1.014-1.538 1.2a3.27 3.27 0 01-.767.12c-.576.016-1.153.014-1.73-.002-.73-.02-1.436-.19-2.13-.408-.624-.195-1.246-.4-1.866-.606a2.54 2.54 0 00-.844-.129c-.76.008-1.518.004-2.276.002A1.136 1.136 0 01-.08 12.662c-.008-.836-.005-1.673-.005-2.509 0-1.08.003-2.163 0-3.244-.001-.666.49-1.174 1.158-1.178.778-.004 1.554-.003 2.33.002.1 0 .182-.022.247-.096.263-.293.532-.582.785-.883.442-.526.873-1.06 1.31-1.589.16-.193.229-.423.286-.659.107-.44.203-.885.325-1.322A1.88 1.88 0 016.979.22a1.05 1.05 0 01.658-.25c.493-.01.969.073 1.416.292.59.29.94.774 1.096 1.398.24.963.183 1.907-.247 2.815-.013.03-.025.06-.044.101l.72.001zm-7.201 8.065h.099c.336-.013.662.044.978.147.409.133.814.277 1.22.415 1.107.373 2.23.647 3.413.594.375-.016.752.015 1.126-.05.63-.11 1.03-.49 1.133-1.095a2.405 2.405 0 00-.004-.776c-.007-.042-.021-.08.03-.117.486-.344.685-1.068.435-1.609-.045-.098-.028-.146.039-.219.322-.35.443-.763.355-1.233a1.617 1.617 0 00-.277-.66c.213-.032.343-.163.422-.337.086-.189.168-.384.212-.586a1.216 1.216 0 000-.477c-.08-.437-.563-.915-1.135-.91-1.003.008-2.007.003-3.011.003h-.141v-.079c.002-.032.004-.065.008-.098.044-.334.155-.649.285-.958.119-.277.246-.55.36-.829.258-.618.269-1.248.082-1.885-.107-.36-.332-.607-.706-.688-.183-.039-.372-.052-.56-.068-.031-.003-.076.028-.098.057-.156.19-.225.418-.281.652-.09.38-.178.761-.274 1.14a2.398 2.398 0 01-.483.96c-.421.508-.84 1.018-1.251 1.533-.328.41-.665.806-1.072 1.14-.224.183-.472.301-.772.275-.043-.004-.087 0-.132 0z"/></svg>