<svg xmlns="http://www.w3.org/2000/svg" viewBox="0 0 44 45"><path fill="#fff" d="M43.964 22.2c0 12.136-9.85 21.973-22 21.973s-22-9.837-22-21.972c0-12.134 9.85-21.972 22-21.972s22 9.838 22 21.972z"/><path fill="#c08129" d="M39.108 8.411c.351.476.691.961 1.034 1.444.179.252.368.5.534.76.203.32.399.644.575.978.644 1.222 1.254 2.461 1.639 3.792.24.83.485 1.66.649 2.506.162.83.251 1.675.322 2.518.07.82.122 1.646.1 2.468a20.71 20.71 0 01-.39 3.504c-.217 1.098-.49 2.174-.88 3.218-.288.77-.61 1.528-.961 2.27a20.927 20.927 0 01-.983 1.793 22.327 22.327 0 01-1.868 2.605 21.12 21.12 0 01-3.615 3.45c-.446.332-.896.662-1.371.952-.707.43-1.417.866-2.163 1.221-.891.423-1.808.798-2.737 1.13-.703.25-1.441.4-2.165.591-1.927.508-3.897.627-5.874.531-1.048-.05-2.091-.238-3.133-.386-1.346-.19-2.635-.605-3.896-1.096-1.373-.535-2.697-1.179-3.912-2.02-.791-.55-1.581-1.107-2.317-1.725-.695-.583-1.332-1.237-1.969-1.885-.291-.297-.52-.655-.781-.983-.248-.31-.501-.619-.751-.928a12.772 12.772 0 01-1.541-2.414c-.392-.799-.823-1.584-1.14-2.412a25.932 25.932 0 01-.954-3.032c-.221-.898-.354-1.823-.449-2.744-.1-.972-.173-1.954-.143-2.929.05-1.623.209-3.242.687-4.808.284-.93.527-1.879.899-2.774.43-1.032.934-2.04 1.489-3.012C4.2 8.97 5.69 7.205 7.458 5.686c.762-.655 1.581-1.248 2.398-1.836a11.07 11.07 0 011.426-.858c.835-.426 1.674-.853 2.541-1.205a20.923 20.923 0 014.79-1.305A22.292 22.292 0 0123.309.27c1.623.1 3.224.34 4.775.823a31.14 31.14 0 012.973 1.097 17.47 17.47 0 013.451 1.952 30.82 30.82 0 012.33 1.872c.634.567 1.2 1.212 1.79 1.827.07.073.104.181.151.267.117.105.244.188.329.303zM13.612 22.446c-.627-.005-1.195.15-1.689.562-.996.834-1.501 2.44-.497 3.742.38.493.873.846 1.396 1.17 1.018.63 2.115 1.076 3.247 1.45a6.76 6.76 0 011.071.438c.266.141.3.347.152.612a2.17 2.17 0 01-.369.492c-.966.945-1.943 1.882-2.911 2.825-.342.332-.681.668-1.004 1.017a15.26 15.26 0 00-.92 1.067c-.373.487-.574 1.062-.539 1.665.064 1.112.684 1.892 1.649 2.397 1.081.565 2.085.313 3.01-.379.618-.462 1.179-.994 1.72-1.545.363-.369.729-.734 1.097-1.097.477-.47.957-.938 1.438-1.405.15-.146.304-.288.458-.429.211-.194.408-.408.638-.575.263-.19.53-.16.776.045.255.211.512.42.749.65.745.727 1.477 1.467 2.222 2.194.851.83 1.71 1.652 2.567 2.475.012.011.046-.005.068 0 .084.02.167.043.25.065.413.108.83.32 1.237.3.57-.028 1.123-.247 1.613-.58.603-.41 1.002-.974 1.154-1.672.197-.904-.046-1.744-.667-2.412-.808-.87-1.683-1.68-2.532-2.513-.755-.74-1.515-1.475-2.266-2.219a1.708 1.708 0 01-.272-.382c-.106-.183-.067-.354.1-.483.098-.074.204-.145.316-.192.363-.152.732-.29 1.097-.439.733-.3 1.477-.579 2.195-.913.757-.352 1.507-.724 2.084-1.366.442-.492.761-1.077.744-1.707-.03-1.115-.53-2.037-1.564-2.57-.716-.368-1.485-.416-2.231-.1-1.041.44-2.024 1-3.107 1.358-1.162.383-2.34.636-3.558.69-1.182.052-2.358.006-3.506-.338-.496-.149-1.009-.244-1.498-.413-.356-.122-.668-.402-1.027-.472-.649-.128-1.134-.575-1.735-.773-.372-.124-.76-.2-1.141-.299l-.015.06zm1.189-3.488c.198.176.379.37.578.544a9.52 9.52 0 003.576 1.962c1.686.5 3.393.588 5.11.178.312-.074.635-.057.943-.22.479-.252 1.014-.395 1.5-.636 1.761-.875 3.139-2.166 4.084-3.895a9.455 9.455 0 001.118-5.775c-.241-2.039-1.102-3.796-2.432-5.324-.43-.495-.974-.899-1.5-1.299a9.111 9.111 0 00-3.017-1.505 10.068 10.068 0 00-4.462-.282 9.864 9.864 0 00-4.393 1.873 8.777 8.777 0 00-1.722 1.667c-.335.437-.677.88-.935 1.362-.642 1.204-1.068 2.484-1.163 3.856-.087 1.25.027 2.475.417 3.671.416 1.277 1.047 2.43 1.936 3.44.062.071.082.178.109.24.094.052.186.083.253.143z"/><path fill="#c08129" d="M19.04 15.218c.085-.051.114-.07.173-.104-.435-.067-.623-.387-.798-.685-.861-1.464-.885-2.937.033-4.387.22-.35.543-.617.858-.896.498-.442 1.064-.687 1.686-.822 1.059-.228 2.092-.12 3.035.434 1.404.822 2.09 2.084 2.017 3.694-.076 1.644-.94 2.818-2.447 3.45-1.163.488-2.366.452-3.526-.068-.354-.158-.672-.398-1.031-.616z"/></svg>