<svg xmlns="http://www.w3.org/2000/svg" width="29" height="29"><path fill="#3694d6" d="M13.538.226h1.8c.073.016.145.035.218.046.657.098 1.322.16 1.971.298 5.431 1.148 9.842 5.763 10.757 11.243.088.524.148 1.053.221 1.58v1.8c-.016.08-.035.162-.048.243-.097.648-.16 1.303-.295 1.943-1.123 5.32-5.592 9.689-10.937 10.7-.624.119-1.258.189-1.887.28h-1.8c-.073-.015-.145-.034-.218-.045-.657-.098-1.322-.161-1.97-.298C5.918 26.868 1.508 22.253.592 16.773c-.087-.524-.148-1.053-.221-1.58v-1.8c.017-.081.036-.162.048-.243.098-.648.161-1.303.296-1.943C1.837 5.887 6.306 1.517 11.652.506c.624-.118 1.257-.188 1.886-.28z"/><path fill="#fff" d="M11.828 18.757c-1.867-.337-3.203-1.36-4.074-3.053l1.478-.066.03-.082c-1.725-.532-2.66-1.676-2.781-3.48l1.499.392.043-.07c-.718-.56-1.242-1.251-1.438-2.144-.193-.881-.086-1.722.426-2.543 2.159 2.574 4.735 4.278 8.215 4.32-.007-.14-.009-.252-.018-.364-.104-1.44.415-2.593 1.638-3.365 1.244-.786 2.546-.784 3.842-.098.224.118.45.254.627.432.211.214.428.237.684.144.613-.221 1.224-.445 1.848-.673-.296.743-.813 1.323-1.483 1.783l.036.078 1.871-.516c-.445.627-.95 1.17-1.557 1.614-.175.128-.233.26-.233.472-.013 5.062-3.512 9.224-8.522 10.043-2.218.362-4.426.222-6.543-.641a4.538 4.538 0 01-.81-.447c1.97.087 3.715-.448 5.221-1.736z"/></svg>