<svg xmlns="http://www.w3.org/2000/svg" viewBox="0 0 45 45"><path fill="#536e95" d="M.61 20.62c.044-.266.101-.53.132-.796.662-5.632 3.11-10.344 7.346-14.11 2.948-2.62 6.38-4.31 10.258-5.052C19.432.454 20.542.37 21.642.23h1.936c.377.03.756.052 1.133.093 5.72.628 10.537 3.04 14.371 7.338 2.97 3.33 4.723 7.23 5.333 11.644.061.44.13.876.195 1.315v3.163c-.03.077-.074.151-.088.23-.217 1.28-.334 2.583-.662 3.832-1.043 3.963-3.066 7.37-6.036 10.207-3.085 2.95-6.716 4.857-10.904 5.68-1.1.215-2.227.297-3.342.441h-1.936l-.302-.046c-1.443-.223-2.916-.329-4.324-.69-4.31-1.11-7.95-3.37-10.897-6.71-2.912-3.3-4.682-7.135-5.289-11.499-.067-.482-.147-.963-.22-1.445zm24.503-2.094c0-1.157.024-2.314-.01-3.47-.018-.628-.305-.86-.925-.863-1.643-.005-3.285 0-4.928-.003-.35 0-.642.105-.809.423-.172.327-.062.624.15.895.063.081.123.164.19.243.594.704.844 1.527.845 2.436.001 1.537.01 3.075-.006 4.613-.004.407.12.934-.36 1.134-.5.208-.845-.207-1.164-.525-.955-.952-1.685-2.075-2.266-3.273-.764-1.576-1.445-3.193-2.124-4.808-.38-.905-.658-1.137-1.638-1.137H9.296c-.132 0-.264-.002-.395.01-.675.054-.96.361-.895 1.028.04.39.13.78.24 1.156.83 2.868 2.24 5.456 3.854 7.946 1.161 1.79 2.434 3.484 4.155 4.787 2.22 1.681 4.661 2.686 7.511 2.417 1.103-.104 1.372-.405 1.373-1.499.001-.937-.01-1.875.007-2.812.013-.717.307-.984 1.007-.823.444.103.91.294 1.26.577.851.688 1.66 1.434 2.45 2.194.611.59 1.16 1.241 1.753 1.85a1.82 1.82 0 001.34.568c1.071.002 2.142.018 3.212-.005 1.021-.023 1.416-.627.985-1.557-.256-.552-.573-1.1-.968-1.559-1.145-1.33-2.334-2.625-3.523-3.918-.799-.868-.818-1.106-.155-2.087.827-1.225 1.675-2.44 2.428-3.71a26.432 26.432 0 001.656-3.279c.358-.856-.002-1.274-.932-1.282-.983-.009-1.966.026-2.948-.01-.88-.033-1.41.336-1.758 1.147-.886 2.063-1.963 4.026-3.384 5.777a8.637 8.637 0 01-1.279 1.257c-.198.16-.59.278-.784.185-.194-.093-.259-.469-.36-.73-.034-.089-.007-.203-.007-.305v-2.988z"/></svg>