<svg xmlns="http://www.w3.org/2000/svg" width="44" height="45"><path fill="#fff" d="M44 22.2c0 12.136-9.85 21.973-22 21.973S0 34.336 0 22.2C0 10.067 9.85.229 22 .229S44 10.067 44 22.2z"/><path fill="#a4182b" d="M20.582 44.172c-.134-.028-.267-.075-.402-.083-1.414-.08-2.796-.348-4.154-.73a21.774 21.774 0 01-8.831-4.888 21.793 21.793 0 01-5.646-8.099 21.743 21.743 0 01-1.434-5.677c-.05-.443-.083-.888-.124-1.332V21.02c.016-.087.042-.174.045-.26.044-1.29.262-2.556.567-3.805a21.34 21.34 0 011.648-4.503A21.904 21.904 0 018.79 4.61 21.915 21.915 0 0116.304.962a21.781 21.781 0 014.625-.72c.876-.04 1.757.021 2.636.054 1.423.052 2.813.32 4.187.684a21.41 21.41 0 015.327 2.218 21.947 21.947 0 017.716 7.532 21.126 21.126 0 012.789 7.087c.203 1.041.32 2.108.383 3.168.11 1.898.016 3.792-.386 5.658a22.827 22.827 0 01-1.03 3.478 21.842 21.842 0 01-4.76 7.403 21.86 21.86 0 01-7.553 5.065 21.52 21.52 0 01-5.738 1.446c-.345.037-.688.091-1.032.137zm-8.124-31.07c-.904.064-1.716.365-2.372 1.017-.643.637-.941 1.454-1.071 2.308-.17 1.1-.305 2.214-.322 3.324-.032 2.057.008 4.117.068 6.174.027.95.136 1.895.417 2.816.404 1.33 1.225 2.21 2.612 2.478.63.122 1.272.215 1.912.242 2.019.084 4.04.154 6.06.188 3.896.063 7.79-.009 11.68-.265.985-.065 1.865-.377 2.555-1.114.585-.625.866-1.407.989-2.219.165-1.09.304-2.197.32-3.299.03-2.09-.008-4.183-.07-6.272-.03-1.022-.15-2.04-.507-3.019-.47-1.286-1.357-2.084-2.71-2.277-.948-.136-1.912-.187-2.872-.219-2.386-.08-4.773-.128-7.16-.19-3.18.045-6.357.097-9.53.326z"/><path fill="#a4182b" d="M26.263 22.012a19924.11 19924.11 0 01-6.96 3.61v-7.336l6.98 3.647-.02.079z"/></svg>