<svg xmlns="http://www.w3.org/2000/svg" width="45" height="45"><path fill="#a4182b" d="M22.244 44.173C10.084 44.162.242 34.303.264 22.15.283 10.034 10.156.21 22.293.229c12.141.019 21.978 9.864 21.968 21.985-.01 12.137-9.87 21.97-22.018 21.959zm7.813-8.495c0-1.481-.01-2.963.01-4.444.002-.307-.082-.447-.377-.561-3.106-1.2-6.206-2.415-9.308-3.628-.056-.022-.107-.056-.178-.094.072-.065.12-.111.17-.154 3.166-2.63 6.33-5.26 9.5-7.885a.465.465 0 00.187-.404c-.006-1.532-.009-3.063.002-4.595.002-.23-.064-.333-.28-.417-4.54-1.764-9.076-3.537-13.612-5.308l-1.633-.633c-.009.07-.018.11-.018.15 0 1.626.002 3.25-.005 4.874 0 .18.097.223.23.274 2.494.962 4.988 1.927 7.482 2.89l2.258.88c-.09.08-.156.143-.226.2l-4.796 3.946c-1.566 1.289-3.128 2.582-4.702 3.86a.581.581 0 00-.247.52c.011 1.523.011 3.047 0 4.57-.003.219.075.305.267.375.64.234 1.273.486 1.908.73 4.227 1.639 8.455 3.276 12.682 4.913.217.084.437.16.686.253z"/><path fill="#fff" d="M30.057 35.99c-.249-.092-.469-.17-.686-.253L16.69 30.825c-.635-.245-1.268-.497-1.908-.731-.192-.07-.27-.156-.268-.375.012-1.523.012-3.047.001-4.57a.581.581 0 01.247-.52c1.574-1.278 3.136-2.571 4.702-3.86 1.6-1.315 3.198-2.63 4.796-3.946.07-.057.136-.12.226-.2l-2.258-.88c-2.494-.963-4.988-1.928-7.483-2.89-.132-.051-.23-.093-.229-.274.007-1.624.004-3.248.005-4.873 0-.04.01-.08.018-.151l1.633.633c4.536 1.77 9.072 3.544 13.611 5.308.217.084.283.187.281.417a414.004 414.004 0 00-.002 4.595.465.465 0 01-.187.404c-3.17 2.625-6.334 5.256-9.5 7.885-.05.043-.098.089-.17.154.071.038.122.072.178.094 3.102 1.213 6.202 2.429 9.308 3.628.295.114.38.254.376.56-.019 1.482-.009 2.964-.009 4.445z"/></svg>